<svg height="512pt" viewBox="-127 0 512 512.00104" width="512pt" xmlns="http://www.w3.org/2000/svg"><path d="m145.660156 456.625v32.914062c0 6.636719 5.375 12.011719 12.011719 12.011719h61.246094c6.632812 0 12.011719-5.375 12.011719-12.011719 0-3.199218-.402344-32.914062-32.929688-32.914062zm0 0" fill="#0084ff"/><path d="m113.3125 456.605469v32.929687c0 6.636719-5.378906 12.015625-12.015625 12.015625h-61.277344c-6.636719 0-12.015625-5.378906-12.015625-12.015625 0-3.203125.398438-32.929687 32.941406-32.929687zm0 0" fill="#fff"/><path d="m48.925781 458.265625c-20.605469 6.285156-20.921875 28.523437-20.921875 31.269531 0 6.636719 5.378906 12.015625 12.015625 12.015625h36.050781c0-19.046875-11.078124-35.503906-27.144531-43.285156zm0 0" fill="#fff"/><path d="m230.929688 489.539062c0-2.746093-.316407-24.992187-20.941407-31.261718-16.050781 7.785156-27.121093 24.234375-27.121093 43.273437h36.054687c6.628906 0 12.007813-5.375 12.007813-12.011719zm0 0" fill="#10bafc"/><path d="m172.085938 107.296875h52.101562v105.863281h-52.101562zm0 0" fill="#ffd41d"/><path d="m65.5625 259.664062-25.21875 52.308594c-2.65625 5.707032-8.3125 9.0625-14.21875 9.0625-2.214844 0-4.464844-.472656-6.605469-1.46875-7.847656-3.652344-11.246093-12.976562-7.59375-20.824218 0 0 32.71875-69.113282 39.363281-83.355469 6.644532-14.242188 31.925782-12.355469 31.925782-12.355469zm0 0" fill="#fff"/><path d="m193.429688 259.664062 25.21875 52.308594c2.65625 5.707032 8.3125 9.0625 14.214843 9.0625 2.214844 0 4.464844-.472656 6.605469-1.46875 7.847656-3.652344 11.246094-12.976562 7.59375-20.824218 0 0-32.714844-69.113282-39.359375-83.355469-6.644531-14.242188-31.925781-12.355469-31.925781-12.355469zm0 0" fill="#ffe5d1"/><path d="m155.261719 200.703125c0 14.226563-11.53125 25.757813-25.753907 25.757813-14.222656 0-25.753906-11.53125-25.753906-25.757813zm0 0" fill="#faede3"/><path d="m175.800781 203.03125h-20.648437c-1.046875 11.695312-9.90625 21.132812-21.324219 23.0625-3.292969 14.140625-9.097656 26.453125-14.90625 33.597656l-43.160156 133.191406h160.847656l-43.152344-133.191406c-8.828125-10.859375-17.65625-33.65625-17.65625-56.660156zm0 0" fill="#1eb615"/><path d="m83.0625 392.882812h30.25v63.738282h-30.25zm0 0" fill="#fff"/><path d="m145.660156 392.882812h30.25v63.738282h-30.25zm0 0" fill="#ffe5d1"/><path d="m224.269531 87.453125c-7.261719-34.859375-33.261719-62.824219-66.988281-72.925781-33.722656 10.101562-59.722656 38.070312-66.984375 72.933594-8.304687.230468-14.980469 9.011718-14.980469 19.835937 0 10.828125 6.675782 19.609375 14.980469 19.839844 7.261719 34.859375 33.261719 62.828125 66.984375 72.933593 33.726562-10.101562 59.726562-38.070312 66.984375-72.925781 8.347656-.171875 15.074219-8.984375 15.074219-19.847656s-6.726563-19.675781-15.070313-19.84375zm0 0" fill="#ffe5d1"/><path d="m224.269531 87.453125c-5.550781-26.648437-22.0625-49.265625-44.59375-62.960937-4.625-.679688-9.351562-1.050782-14.164062-1.050782-45.667969 0-83.925781 31.621094-94.144531 74.152344 23.171874-1.242188 43.800781-12 58.09375-28.421875 7.707031 8.851563 17.257812 16.054687 28.050781 21.011719 2.84375-2.488282 5.519531-5.164063 8-8.015625 5.019531 5.765625 10.824219 10.828125 17.242187 15.03125 3.058594.34375 6.167969.519531 9.316406.519531 13.476563 0 26.195313-3.226562 37.445313-8.933594-1.636719-.8125-3.398437-1.292968-5.246094-1.332031zm0 0" fill="#ffd41d"/><path d="m94.984375 132.789062c-7.015625 0-12.726563-6.015624-12.726563-13.402343 0-7.390625 5.710938-13.402344 12.726563-13.402344s12.722656 6.011719 12.722656 13.402344c0 7.386719-5.707031 13.402343-12.722656 13.402343zm0 0"/><path d="m163.960938 132.789062c-7.015626 0-12.726563-6.015624-12.726563-13.402343 0-7.390625 5.710937-13.402344 12.726563-13.402344 7.015624 0 12.71875 6.011719 12.71875 13.402344 0 7.386719-5.703126 13.402343-12.71875 13.402343zm0 0"/><path d="m129.507812 167.382812c-6.191406 0-11.984374-1.351562-16.308593-3.800781-5.023438-2.84375-6.789063-9.21875-3.945313-14.238281 2.84375-5.023438 9.21875-6.789062 14.242188-3.945312.664062.375 2.773437 1.085937 6.011718 1.085937 3.242188 0 5.351563-.710937 6.011719-1.085937 5.023438-2.84375 11.398438-1.078126 14.242188 3.941406 2.84375 5.023437 1.078125 11.398437-3.941407 14.242187-4.328124 2.449219-10.121093 3.800781-16.3125 3.800781zm0 0"/><path d="m129.550781 281.859375c-5.773437 0-10.449219 4.679687-10.449219 10.449219v.496094c0 5.769531 4.675782 10.449218 10.449219 10.449218 5.769531 0 10.449219-4.679687 10.449219-10.449218v-.496094c0-5.769532-4.679688-10.449219-10.449219-10.449219zm0 0"/><path d="m256.507812 294.269531c-.269531-.5625-21.863281-46.179687-33.398437-70.660156h1.078125c5.769531 0 10.449219-4.679687 10.449219-10.449219v-77.671875c0-.171875-.019531-.339843-.027344-.507812 9.011719-4.695313 15.179687-15.246094 15.179687-27.683594 0-13.195313-6.945312-24.273437-16.863281-28.480469-12.664062-46.050781-55.144531-78.816406-103.464843-78.816406-48.335938 0-90.832032 32.789062-103.476563 78.871094-9.855469 4.25-16.757813 15.3125-16.757813 28.425781 0 12.390625 6.164063 22.9375 15.152344 27.652344v78.210937c0 5.769532 4.679688 10.449219 10.449219 10.449219h1.050781c-11.535156 24.480469-33.132812 70.109375-33.421875 70.71875-2.945312 6.328125-3.253906 13.421875-.863281 19.976563 2.390625 6.554687 7.1875 11.785156 13.515625 14.734374 3.484375 1.621094 7.191406 2.445313 11.015625 2.445313 1.828125 0 3.628906-.199219 5.375-.570313l-19.035156 58.75c-1.03125 3.179688-.476563 6.660157 1.488281 9.363282 1.96875 2.707031 5.109375 4.304687 8.453125 4.304687h50.207031v42.824219h-11.664062c-29.976563 0-43.390625 21.789062-43.390625 43.382812 0 12.386719 10.078125 22.460938 22.464844 22.460938h61.277343c12.386719 0 22.464844-10.074219 22.464844-22.460938v-86.207031h11.449219v86.210938c0 12.382812 10.074218 22.457031 22.457031 22.457031h61.25c12.386719 0 22.460937-10.074219 22.460937-22.457031 0-21.585938-13.414062-43.367188-43.378906-43.367188h-11.640625v-42.84375h50.25c3.339844 0 6.484375-1.597656 8.449219-4.304687 1.96875-2.703125 2.519531-6.183594 1.488281-9.363282l-19.03125-58.746093c1.738281.367187 3.527344.566406 5.347657.566406 3.824218 0 7.53125-.824219 11.015624-2.445313 6.328126-2.945312 11.125-8.179687 13.515626-14.734374 2.386718-6.554688 2.082031-13.648438-.890626-20.035157zm-216.488281 196.832031c-.863281 0-1.566406-.703124-1.566406-1.566406 0-3.402344.800781-8.542968 3.042969-12.757812 1.613281-3.027344 3.851562-5.328125 6.730468-6.933594 7.835938 4.972656 13.445313 12.511719 15.941407 21.257812zm170.675781-21.25c2.890626 1.605469 5.132813 3.90625 6.746094 6.941407 2.242188 4.210937 3.039063 9.347656 3.039063 12.746093 0 .863282-.699219 1.5625-1.558594 1.5625h-24.152344c2.492188-8.738281 8.097657-16.277343 15.925781-21.25zm-81.234374-448.953124c38.882812 0 73.050781 26.351562 83.273437 63.378906-6.65625 1.984375-13.566406 2.992187-20.664063 2.992187-20.972656 0-40.921874-9.09375-54.726562-24.957031-1.984375-2.28125-4.859375-3.589844-7.882812-3.589844-3.023438 0-5.898438 1.308594-7.882813 3.589844-13.804687 15.863281-33.753906 24.957031-54.726563 24.957031-7.09375 0-14.003906-1.011719-20.65625-2.992187 10.222657-37.03125 44.386719-63.378906 83.265626-63.378906zm-94.511719 95.792968c-1.921875-.054687-4.824219-3.828125-4.824219-9.394531 0-2.421875.550781-4.507813 1.332031-6.09375 11.21875 4.621094 23.097657 6.964844 35.394531 6.964844 23.253907 0 45.523438-8.671875 62.609376-24.105469 17.089843 15.433594 39.359374 24.105469 62.609374 24.105469 12.320313 0 24.214844-2.351563 35.449219-6.984375.792969 1.5625 1.371094 3.636718 1.371094 6.113281 0 5.769531-3.128906 9.367187-4.835937 9.402344-4.867188.097656-9.023438 3.546875-10.015626 8.316406-8.289062 39.796875-43.859374 68.683594-84.574218 68.683594-40.71875 0-76.289063-28.890625-84.578125-68.691407-.988281-4.738281-5.101563-8.179687-9.9375-8.316406zm178.789062 56.886719v29.132813h-2.605469c-5.273437-4.898438-12.136718-7.496094-18.488281-8.839844 7.894531-5.769532 15.007813-12.59375 21.09375-20.292969zm-91.128906 40.769531c2.269531.148438 4.550781.25 6.855469.25 2.335937 0 4.652344-.105468 6.957031-.253906-2.078125 1.058594-4.425781 1.667969-6.914063 1.667969-2.484374 0-4.824218-.609375-6.898437-1.664063zm-56.3125-20.46875c-6.335937 1.351563-13.179687 3.945313-18.441406 8.832032h-2.578125v-29.015626c6.070312 7.65625 13.15625 14.441407 21.019531 20.183594zm-35.363281 113.558594c-.023438.039062-.042969.082031-.0625.125-.855469 1.835938-2.71875 3.023438-4.746094 3.023438-.753906 0-1.492188-.164063-2.195312-.492188-2.609376-1.21875-3.746094-4.332031-2.558594-6.882812.328125-.691407 32.804687-69.300782 39.386718-83.410157 1.425782-3.0625 6.234376-4.839843 11.269532-5.71875-2.125 16.378907-8.503906 31.550781-14.574219 39.015625-.507813.628906-.933594 1.316406-1.285156 2.042969-.007813-.007813-.011719-.007813-.019531-.015625zm71.929687 182.097656c0 .863282-.703125 1.566406-1.566406 1.566406h-15.738281c-1.605469-8.730468-5.191406-16.941406-10.359375-24.03125h27.664062zm0-43.378906h-9.351562v-42.824219h9.351562zm70.511719 44.945312h-15.703125c-.859375 0-1.5625-.699218-1.5625-1.5625v-22.464843h27.617187c-5.164062 7.089843-8.746093 15.304687-10.351562 24.027343zm-17.265625-44.929687v-42.839844h9.351563v42.839844zm-119.335937-63.738281 38.164062-117.78125c8.097656-10.855469 16.371094-30.476563 18.304688-52.242188l1.929687-.21875c3.722656 11.097656 12.683594 19.804688 23.925781 23.1875v23.125c0 5.769532 4.679688 10.449219 10.449219 10.449219s10.449219-4.679687 10.449219-10.449219v-23.152344c11.207031-3.398437 20.136718-12.09375 23.847656-23.160156l1.929688.21875c1.933593 21.765625 10.207031 41.386719 18.304687 52.242188l38.160156 117.78125zm200.988281-75.285156c-.277344.757812-.996094 2.148437-2.703125 2.945312-.699219.324219-1.441406.492188-2.195313.492188-2.027343 0-3.890625-1.1875-4.746093-3.023438-.015626-.042969-.039063-.085938-.058594-.125l-24.992188-51.839844c-.382812-.898437-.886718-1.738281-1.503906-2.496094-6.070312-7.46875-12.449219-22.636718-14.574219-39.011718 5.03125.882812 9.820313 2.65625 11.246094 5.714844 6.582031 14.105468 39.058594 82.714843 39.355469 83.347656.796875 1.707031.449218 3.234375.171875 3.996094zm0 0"/></svg>