<svg height="512pt" viewBox="-104 0 512 512" width="512pt" xmlns="http://www.w3.org/2000/svg"><path d="m178.050781 201.484375c0 14.191406-11.5 25.691406-25.691406 25.691406-14.183594 0-25.6875-11.5-25.6875-25.691406zm0 0" fill="#faede3"/><path d="m198.539062 203.804688-20.488281-2.320313c0 14.1875-11.5 25.691406-25.691406 25.691406-14.183594 0-25.6875-11.503906-25.6875-25.691406l-20.488281 2.320313c0 22.949218-8.800782 45.6875-17.609375 56.519531v71.894531h127.574219v-71.894531c-8.808594-10.832031-17.609376-33.570313-17.609376-56.519531zm0 0" fill="#ffd41d"/><path d="m168.472656 456.765625v32.832031c0 6.617188 5.363282 11.980469 11.980469 11.980469h61.09375c6.617187 0 11.980469-5.363281 11.980469-11.980469 0-3.195312-.398438-32.832031-32.84375-32.832031zm0 0" fill="#d50707"/><path d="m136.207031 456.746094v32.847656c0 6.617188-5.367187 11.984375-11.984375 11.984375h-61.125c-6.621094 0-11.988281-5.367187-11.988281-11.984375 0-3.195312.402344-32.847656 32.859375-32.847656zm0 0" fill="#d50707"/><path d="m106.03125 424.796875h30.175781v31.960937h-30.175781zm0 0" fill="#ffe5d1"/><path d="m168.472656 424.796875h30.175782v31.960937h-30.175782zm0 0" fill="#ffe5d1"/><path d="m88.574219 332.21875v92.578125h47.6875v-47.308594c0-8.890625 7.207031-16.097656 16.097656-16.097656s16.097656 7.207031 16.097656 16.097656v47.308594h47.691407v-92.578125zm0 0" fill="#0084ff"/><g fill="#ffe5d1"><path d="m100.507812 195.667969-84.996093 85c-6.785157 6.78125-6.785157 17.777343 0 24.558593 6.78125 6.785157 17.777343 6.785157 24.5625 0l62.117187-62.113281zm0 0" fill-rule="evenodd"/><path d="m205.363281 245.863281 59.441407 59.445313c6.785156 6.78125 17.78125 6.78125 24.5625 0 6.785156-6.78125 6.785156-17.78125 0-24.5625l-88.625-88.625zm0 0" fill-rule="evenodd"/><path d="m262.84375 107.84375c0-10.925781-6.765625-19.789062-15.164062-19.960938-9.210938-44.230468-48.402344-77.460937-95.363282-77.460937-46.964844 0-86.15625 33.234375-95.367187 77.46875-8.355469.230469-15.070313 9.0625-15.070313 19.953125s6.714844 19.722656 15.070313 19.957031c9.210937 44.230469 48.402343 77.464844 95.367187 77.464844 46.960938 0 86.152344-33.230469 95.363282-77.460937 8.398437-.167969 15.164062-9.03125 15.164062-19.960938zm0 0"/></g><path d="m152.316406 10.421875c-43.140625 0-79.699218 28.050781-92.511718 66.898437 11.335937 8.054688 25.183593 12.808594 40.148437 12.808594 20.90625 0 39.636719-9.253906 52.359375-23.875 12.726562 14.621094 31.457031 23.875 52.359375 23.875 14.96875 0 28.816406-4.753906 40.15625-12.8125-12.8125-38.84375-49.375-66.894531-92.511719-66.894531zm0 0" fill="#bc6f45"/><path d="m152.402344 307.996094c-5.757813 0-10.425782-4.667969-10.425782-10.421875v-.496094c0-5.757813 4.667969-10.425781 10.425782-10.425781 5.753906 0 10.421875 4.667968 10.421875 10.425781v.496094c0 5.753906-4.667969 10.421875-10.421875 10.421875zm0 0"/><path d="m117.632812 133.394531c-7.007812 0-12.710937-6.007812-12.710937-13.394531 0-7.382812 5.703125-13.390625 12.710937-13.390625 7.007813 0 12.710938 6.007813 12.710938 13.390625 0 7.386719-5.703125 13.394531-12.710938 13.394531zm0 0"/><path d="m187.015625 133.394531c-7.007813 0-12.710937-6.007812-12.710937-13.394531 0-7.382812 5.703124-13.390625 12.710937-13.390625s12.710937 6.007813 12.710937 13.390625c0 7.386719-5.703124 13.394531-12.710937 13.394531zm0 0"/><path d="m152.359375 168.195312c-6.210937 0-12.019531-1.355468-16.359375-3.808593-5.007812-2.835938-6.773438-9.195313-3.9375-14.203125 2.835938-5.011719 9.195312-6.773438 14.203125-3.9375.675781.378906 2.820313 1.101562 6.097656 1.101562 3.273438 0 5.414063-.71875 6.089844-1.101562 5.007813-2.839844 11.367187-1.074219 14.203125 3.933594 2.835938 5.011718 1.074219 11.371093-3.933594 14.207031-4.339844 2.453125-10.148437 3.808593-16.363281 3.808593zm0 0"/><path d="m296.738281 273.375-76.710937-76.714844c-1.039063-1.035156-2.238282-1.804687-3.519532-2.3125 18.960938-14.070312 33.308594-34.242187 39.808594-57.917968 9.964844-4.203126 16.949219-15.328126 16.949219-28.585938 0-13.253906-6.984375-24.382812-16.949219-28.585938-12.710937-46.308593-55.421875-79.257812-104-79.257812-48.597656 0-91.320312 32.980469-104.015625 79.3125-9.90625 4.25-16.84375 15.355469-16.84375 28.53125s6.9375 24.28125 16.84375 28.53125c6.5 23.722656 20.878907 43.929688 39.882813 58.015625-1.238282.507813-2.402344 1.265625-3.40625 2.269531l-76.636719 76.636719c-5.25 5.25-8.140625 12.226563-8.140625 19.648437 0 7.425782 2.890625 14.402344 8.140625 19.652344 5.417969 5.417969 12.535156 8.128906 19.652344 8.125 7.113281 0 14.234375-2.707031 19.652343-8.125l30.707032-30.707031v142.90625c0 5.753906 4.667968 10.421875 10.421875 10.421875h7.03125v11.101562h-11.632813c-29.898437 0-43.28125 21.734376-43.28125 43.273438 0 12.355469 10.050782 22.40625 22.40625 22.40625h61.125c12.355469 0 22.40625-10.050781 22.40625-22.40625l.058594-112.105469c0-3.128906 2.542969-5.675781 5.671875-5.675781 3.132813 0 5.675781 2.546875 5.675781 5.675781l.015625 112.109375c0 12.351563 10.050781 22.402344 22.402344 22.402344h61.097656c12.351563 0 22.402344-10.050781 22.402344-22.402344 0-21.53125-13.378906-43.257812-43.269531-43.257812h-11.613282v-11.121094h7.078126c5.753906 0 10.421874-4.667969 10.421874-10.421875v-142.984375l30.867188 30.867188c5.417969 5.414062 12.535156 8.125 19.652344 8.125 7.113281 0 14.230468-2.710938 19.648437-8.125 5.25-5.25 8.140625-12.230469 8.140625-19.652344s-2.890625-14.402344-8.140625-19.652344zm-144.421875-252.53125c34.921875 0 66.070313 21.113281 79.699219 52.136719-8.40625 4.410156-17.742187 6.726562-27.339844 6.726562-17.054687 0-33.273437-7.398437-44.5-20.296875-1.980469-2.273437-4.847656-3.578125-7.859375-3.578125-3.015625 0-5.882812 1.304688-7.863281 3.578125-11.226563 12.898438-27.445313 20.296875-44.5 20.296875-9.613281 0-18.933594-2.316406-27.335937-6.730469 13.628906-31.019531 44.777343-52.132812 79.699218-52.132812zm-66.113281 223.679688c-.390625.296874-.773437.609374-1.132813.96875l-52.363281 52.363281c-2.710937 2.710937-7.117187 2.710937-9.828125 0-1.308594-1.308594-2.035156-3.054688-2.035156-4.910157 0-1.851562.722656-3.597656 2.039062-4.910156l71.96875-71.96875c-1.53125 10.691406-4.839843 20.785156-8.648437 28.457032zm39.578125 245.070312c0 .859375-.699219 1.5625-1.558594 1.5625h-61.125c-.863281 0-1.5625-.703125-1.5625-1.5625 0-3.394531.796875-8.523438 3.035156-12.726562 3.472657-6.527344 9.816407-9.683594 19.398438-9.683594h41.8125zm0-43.273438h-9.328125v-11.101562h9.328125zm26.578125-95.351562c-14.625 0-26.519531 11.898438-26.519531 26.519531v36.882813h-26.84375v-71.730469h106.726562v71.730469h-26.839844v-36.882813c0-14.621093-11.898437-26.519531-26.523437-26.519531zm-6.042969-135.46875c1.988282.113281 3.988282.1875 6 .1875 2.046875 0 4.078125-.078125 6.101563-.195312-1.859375.808593-3.90625 1.261718-6.058594 1.261718-2.144531 0-4.1875-.449218-6.042969-1.253906zm6.085938 58.28125c5.753906 0 10.421875-4.667969 10.421875-10.421875v-27.3125c11.179687-3.390625 20.082031-12.0625 23.785156-23.101563l1.925781.214844c1.84375 20.753906 9.464844 39.554688 17.1875 50.628906v58.007813h-106.726562v-58.007813c7.726562-11.074218 15.347656-29.875 17.1875-50.628906l1.925781-.214844c3.714844 11.066407 12.652344 19.753907 23.867187 23.128907v27.285156c0 5.753906 4.667969 10.421875 10.425782 10.421875zm35.824218 161.4375v11.117188h-9.332031v-11.117188zm32.457032 31.96875c9.578125 0 15.917968 3.171875 19.390625 9.691406 2.234375 4.203125 3.03125 9.324219 3.03125 12.71875 0 .859375-.699219 1.558594-1.554688 1.558594h-61.097656c-.859375 0-1.554687-.699219-1.554687-1.558594v-22.410156zm-68.367188-272.34375c-41.003906 0-76.816406-29.089844-85.164062-69.167969-.984375-4.730469-5.085938-8.160156-9.914063-8.296875-1.964843-.054687-4.9375-3.886718-4.9375-9.535156s2.972657-9.480469 4.9375-9.535156c3.742188-.101563 7.042969-2.191406 8.796875-5.328125 10.550782 4.972656 22.070313 7.570312 33.917969 7.570312 19.359375 0 37.917969-7.035156 52.359375-19.59375 14.445312 12.558594 33.003906 19.59375 52.359375 19.59375 11.828125 0 23.367187-2.59375 33.925781-7.566406 1.773438 3.148437 5.105469 5.242187 8.871094 5.320313 1.96875.039062 4.949219 3.863281 4.949219 9.539062s-2.976563 9.503906-4.949219 9.542969c-4.855469.097656-9 3.539062-9.992188 8.292969-8.347656 40.074218-44.160156 69.164062-85.160156 69.164062zm129.683594 103.09375c-2.707031 2.710938-7.117188 2.707031-9.824219 0l-52-52c-.5-.503906-1.042969-.945312-1.613281-1.324219-3.839844-7.703125-7.179688-17.875-8.707031-28.644531l72.144531 72.148438c1.3125 1.3125 2.035156 3.054687 2.035156 4.910156 0 1.855468-.722656 3.597656-2.035156 4.910156zm0 0"/></svg>