<svg height="512pt" viewBox="-103 0 512 512.00075" width="512pt" xmlns="http://www.w3.org/2000/svg"><path d="m190.324219 237.484375v-46.003906h-73.773438v46.003906c0 16.328125-11.074219 30.460937-26.847656 34.683594-47.339844 12.675781-82.203125 55.867187-82.203125 107.207031v116.667969c0 4.671875 3.785156 8.457031 8.457031 8.457031h274.960938c4.667969 0 8.453125-3.785156 8.453125-8.457031v-116.667969c0-51.339844-34.859375-94.53125-82.203125-107.207031-15.773438-4.21875-26.84375-18.355469-26.84375-34.683594zm0 0" fill="#fed6a6"/><path d="m217.167969 272.167969c-15.773438-4.222657-26.84375-18.355469-26.84375-34.683594v-46.003906h-49.542969v73.488281c0 16.332031 11.074219 30.464844 26.847656 34.6875 47.339844 12.675781 82.203125 55.867188 82.203125 107.207031v97.636719h41.085938c4.667969 0 8.457031-3.785156 8.457031-8.457031v-116.667969c-.003906-51.339844-34.863281-94.53125-82.207031-107.207031zm0 0" fill="#efc79c"/><path d="m8.257812 122.515625c0 16.515625 12.464844 30.113281 31.332032 31.914063l1.871094-63.988282c-19.761719.914063-33.203126 14.921875-33.203126 32.074219zm0 0" fill="#fed6a6"/><path d="m298.613281 122.515625c0-17.152344-13.441406-31.160156-33.199219-32.074219l1.867188 63.988282c18.871094-1.804688 31.332031-15.398438 31.332031-31.914063zm0 0" fill="#fed6a6"/><path d="m263.917969 80.332031c-18.113281-42.546875-60.296875-72.503906-109.035157-72.832031-.050781 0-.105468-.007812-.160156-.007812-.429687-.007813-.855468.007812-1.285156.003906-.429688.003906-.855469-.011719-1.289062-.003906-.054688 0-.105469.007812-.160157.007812-48.738281.328125-91.585937 26.285156-109.703125 68.832031-4.554687 10.492188-10.277344 35.644531-6.480468 70.636719l.949218 7.460938c7.375 30.617187 16.726563 55.570312 53.863282 74.527343 5.238281 2.671875 10.1875 5.945313 14.46875 9.980469 10.429687 9.828125 26.277343 13.488281 47.679687 13.488281.222656 0 .445313-.035156.667969-.085937.226562.050781.449218.085937.671875.085937 19.476562 0 34.351562-5.4375 44.734375-13.839843 4.710937-3.8125 12.859375-9.414063 18.003906-12.621094 26.363281-16.449219 45.878906-40.84375 53.273438-71.535156l.890624-6.800782c2.457032-18.753906.460938-52.734375-7.089843-67.296875zm0 0" fill="#ffe3c2"/><path d="m263.917969 80.332031c-18.113281-42.546875-60.296875-72.503906-109.035157-72.832031-.054687 0-.105468-.007812-.160156-.007812-.429687-.007813-.855468.007812-1.285156.003906-.429688.003906-.855469-.007813-1.289062-.003906-.054688 0-.105469.007812-.160157.007812-8.492187.058594-16.800781.910156-24.835937 2.476562 38.582031 7.996094 70.582031 34.761719 85.734375 70.351563 7.550781 14.566406 9.546875 48.546875 7.089843 67.300781l-.890624 6.800782c-7.394532 30.691406-26.910157 55.085937-53.273438 71.535156-5.140625 3.207031-13.292969 8.808594-18.003906 12.621094-5.90625 4.777343-13.269532 8.59375-22.105469 11 7.746094 1.976562 16.753906 2.839843 27.0625 2.839843.222656 0 .445313-.035156.671875-.085937.222656.050781.445312.085937.667969.085937 19.476562 0 34.351562-5.441406 44.734375-13.839843 4.710937-3.8125 12.863281-9.414063 18.003906-12.621094 26.363281-16.449219 45.878906-40.847656 53.273438-71.535156l.890624-6.800782c2.457032-18.753906.460938-52.734375-7.089843-67.296875zm0 0" fill="#f7d6b5"/><path d="m65.226562 406.789062v97.710938h176.417969v-97.710938c0-5.054687 4.097657-9.148437 9.152344-9.148437h39.425781c5.054688 0 9.152344-4.097656 9.152344-9.152344v-9.113281c0-45.128906-26.9375-83.960938-65.609375-101.308594-7.761719 21.421875-40.773437 37.515625-80.328125 37.515625s-72.566406-16.09375-80.328125-37.515625c-38.671875 17.347656-65.605469 56.179688-65.605469 101.308594v9.113281c0 5.054688 4.09375 9.152344 9.148438 9.152344h39.425781c5.050781 0 9.148437 4.09375 9.148437 9.148437zm0 0" fill="#a393e5"/><path d="m233.765625 278.066406c-4.96875 13.710938-20.289063 25.230469-41.042969 31.75 31.558594 17.554688 53.652344 50.050782 56.730469 87.929688.441406-.0625.886719-.109375 1.34375-.109375h39.425781c5.054688 0 9.148438-4.097657 9.148438-9.148438v-9.113281c0-45.128906-26.933594-83.960938-65.605469-101.308594zm0 0" fill="#8a84c1"/><path d="m152.765625 207.445312c21.136719 0 39.773437-8.804687 45.316406-21.40625 1.667969-3.792968-.050781-8.21875-3.84375-9.886718-3.789062-1.664063-8.214843.054687-9.886719 3.84375-3.382812 7.691406-19.027343 12.449218-31.585937 12.449218s-28.203125-4.761718-31.585937-12.449218c-1.667969-3.789063-6.097657-5.507813-9.886719-3.84375-3.789063 1.667968-5.511719 6.09375-3.84375 9.886718 5.546875 12.601563 24.179687 21.40625 45.316406 21.40625zm0 0"/><path d="m122.292969 109.898438c0-4.144532-3.359375-7.5-7.5-7.5-4.144531 0-7.5 3.355468-7.5 7.5 0 2.777343-2.261719 5.035156-5.039063 5.035156s-5.035156-2.257813-5.035156-5.035156c0-4.144532-3.359375-7.5-7.5-7.5-4.144531 0-7.5 3.355468-7.5 7.5 0 11.046874 8.988281 20.035156 20.035156 20.035156 11.050782 0 20.039063-8.988282 20.039063-20.035156zm0 0"/><path d="m204.617188 129.933594c11.050781 0 20.039062-8.988282 20.039062-20.035156 0-4.144532-3.359375-7.5-7.5-7.5-4.144531 0-7.5 3.355468-7.5 7.5 0 2.777343-2.261719 5.035156-5.039062 5.035156-2.773438 0-5.035157-2.257813-5.035157-5.035156 0-4.144532-3.355469-7.5-7.5-7.5s-7.5 3.355468-7.5 7.5c0 11.046874 8.988281 20.035156 20.035157 20.035156zm0 0"/><path d="m299.519531 338.195312c-1.441406-3.882812-5.761719-5.863281-9.640625-4.425781-3.886718 1.4375-5.867187 5.757813-4.425781 9.640625 4.257813 11.488282 6.417969 23.589844 6.417969 35.964844v9.113281c0 .910157-.738282 1.648438-1.648438 1.648438h-39.425781c-9.183594 0-16.652344 7.472656-16.652344 16.652343v90.210938h-161.417969v-30.582031c0-4.140625-3.355468-7.5-7.5-7.5-4.140624 0-7.5 3.359375-7.5 7.5v30.582031h-41.769531c-.527343 0-.957031-.429688-.957031-.957031 0 0 0-90.949219 0-90.988281 0 0 38.460938.082031 41.074219.082031.910156 0 1.652343.742187 1.652343 1.652343v24.722657c0 4.144531 3.355469 7.5 7.5 7.5 4.144532 0 7.5-3.355469 7.5-7.5v-24.722657c0-9.183593-7.46875-16.652343-16.652343-16.652343h-39.425781c-.910157 0-1.648438-.738281-1.648438-1.648438v-9.113281c0-38.742188 21.617188-73.59375 54.683594-91.285156 12.894531 20.9375 45.726562 34.992187 83.753906 34.992187 38.003906 0 70.816406-14.035156 83.726562-34.957031 12.324219 6.617188 23.339844 15.722656 32.121094 26.714844 2.5 3.128906 7.335938 3.738281 10.542969 1.175781 3.234375-2.585937 3.761719-7.304687 1.175781-10.539063-11.132812-13.9375-25.457031-25.265624-41.523437-33-6.542969-3.148437-13.371094-5.644531-20.371094-7.554687-9.046875-2.421875-16.292969-9.082031-19.492187-17.578125 1.359374-.925781 2.671874-1.902344 3.941406-2.925781 4.402344-3.566407 12.386718-9.050781 17.253906-12.089844 28.140625-17.558594 47.261719-42.378906 55.515625-71.976563 17.769531-4.957031 29.789063-19.910156 29.789063-37.839843 0-19.003907-13.4375-34.542969-32.617188-38.582031-.828125-2.480469-1.757812-4.765626-2.785156-6.789063-19.914063-46.5-65.28125-76.757813-115.597656-77.13671875-.097657-.00390625-3.277344-.00390625-3.367188 0-25.40625.20312475-49.625 7.01562475-70.054688 19.71093775-20.863281 12.964844-36.878906 31.527344-46.289062 53.632812-.652344 1.5-2.117188 5.171875-3.640625 10.9375-18.5 4.527344-31.007813 19.621094-31.007813 38.230469 0 17.910156 11.992188 32.851563 29.726563 37.824219 7.191406 28.507812 17.949219 55.507812 56.722656 75.296875 4.980469 2.542969 9.265625 5.488281 12.734375 8.761719 1.972656 1.855468 4.113282 3.539062 6.4375 5.050781-3.539062 7.523437-10.300781 13.25-18.613281 15.476562-51.675781 13.832031-87.765625 60.898438-87.765625 114.449219v116.667969c0 8.800781 7.160156 15.957031 15.957031 15.957031h274.960938c8.796875 0 15.953125-7.15625 15.953125-15.957031v-116.667969c0-14.160156-2.472656-28.015625-7.351563-41.179688zm-8.40625-215.679687c0 8.792969-4.597656 16.277344-12.105469 20.605469.925782-11.742188.597657-27.8125-1.585937-42.121094 8.398437 4.132812 13.691406 12.042969 13.691406 21.515625zm-275.355469 0c0-9.183594 4.828126-16.824219 12.699219-21.054687-1.414062 10.914062-2.050781 24.84375-.5625 41.675781-7.527343-4.324219-12.136719-11.8125-12.136719-20.621094zm78.269532 99.761719c-34.910156-17.820313-43.042969-40.898438-49.882813-69.191406-.003906-.046876-.011719-.089844-.015625-.132813l-.875-6.859375c-4.472656-41.351562 4.835938-64.292969 5.933594-66.824219 14.074219-33.054687 44.160156-55.722656 81.179688-62.300781-8.085938 10.425781-12.21875 24.128906-6.617188 40.0625 1.371094 3.90625 5.65625 5.960938 9.5625 4.589844 3.910156-1.375 5.960938-5.65625 4.589844-9.5625-4.742188-13.484375 1.101562-23.449219 7.800781-29.90625 1.660156 12.847656 7.890625 29.472656 24.882813 40.257812 1.246093.789063 2.636718 1.167969 4.011718 1.167969 2.480469 0 4.910156-1.230469 6.339844-3.480469 2.21875-3.496094 1.183594-8.132812-2.3125-10.351562-15.675781-9.949219-18.160156-26.171875-18.300781-34.570313 42.328125 2.359375 79.890625 28.621094 96.695312 68.09375.074219.171875.15625.34375.242188.511719 1.152343 2.222656 2.171875 5.078125 3.054687 8.371094.050782.242187.113282.480468.1875.714844 3.894532 15.148437 5.011719 38.976562 3.070313 53.789062l-.824219 6.292969c-.003906.039062-.011719.078125-.015625.113281-6.703125 27.363281-23.9375 50.367188-49.859375 66.542969-5.285156 3.300781-13.652344 9.03125-18.75 13.152343-2.019531 1.632813-4.207031 3.109376-6.550781 4.421876-.195313.097656-.382813.203124-.570313.3125-8.871094 4.828124-19.910156 7.375-32.441406 7.433593-.746094-.113281-1.503906-.113281-2.25 0-14.351562-.039062-25.21875-1.835937-33.265625-5.582031-.191406-.101562-.390625-.195312-.59375-.28125-3.175781-1.542969-5.90625-3.402344-8.222656-5.585938-4.503907-4.242187-9.957031-8.011718-16.203125-11.199218zm-2.382813 57.136718c12.660157-3.386718 22.964844-12.148437 28.347657-23.667968 8.957031 2.820312 19.761718 4.179687 32.773437 4.179687.222656 0 .445313-.007812.671875-.023437.222656.015625.445312.023437.667969.023437 11.816406 0 22.664062-1.90625 32.15625-5.597656 5.183593 12.140625 15.832031 21.570313 28.96875 25.085937 2.71875.730469 5.40625 1.574219 8.058593 2.527344-10.863281 15.277344-38.984374 26.140625-69.851562 26.140625-30.878906 0-59.003906-10.867187-69.859375-26.152343 2.636719-.941407 5.324219-1.78125 8.066406-2.515626zm199.273438 217.585938h-41.773438v-90.210938c0-.910156.742188-1.648437 1.652344-1.648437l41.074219-.082031v90.984375c0 .527343-.425782.957031-.953125.957031zm0 0"/></svg>