<svg height="480pt" viewBox="0 -52 480.0006 480" width="480pt" xmlns="http://www.w3.org/2000/svg"><path d="m88.007812 8h304v48h-304zm0 0" fill="#dd3e46"/><path d="m472.007812 368-64-312h-333.792968l-66.207032 312h80v-16h72v-16h160v16h80v16zm0 0" fill="#f98c96"/><g fill="#dd3e46"><path d="m88.007812 360c-.175781 0-.359374 0-.535156 0-2.125-.136719-4.105468-1.113281-5.503906-2.714844-1.402344-1.597656-2.105469-3.691406-1.960938-5.8125l8-120c.289063-4.417968 4.109376-7.765625 8.527344-7.472656 4.417969.292969 7.761719 4.109375 7.472656 8.527344l-8 120c-.28125 4.210937-3.78125 7.480468-8 7.472656zm0 0"/><path d="m160.007812 344c-.175781 0-.359374 0-.535156 0-2.125-.136719-4.105468-1.113281-5.503906-2.714844-1.402344-1.597656-2.105469-3.691406-1.960938-5.8125l8-120c.289063-4.417968 4.109376-7.765625 8.527344-7.472656 4.417969.292969 7.761719 4.109375 7.472656 8.527344l-8 120c-.28125 4.210937-3.78125 7.480468-8 7.472656zm0 0"/><path d="m320.007812 344c-4.222656.007812-7.722656-3.261719-8-7.472656l-8-120c-.292968-4.417969 3.054688-8.234375 7.472657-8.527344s8.234375 3.054688 8.527343 7.472656l8 120c.144532 2.121094-.5625 4.214844-1.964843 5.816406-1.402344 1.601563-3.382813 2.574219-5.507813 2.710938-.175781 0-.359375 0-.527344 0zm0 0"/><path d="m400.007812 360c-4.222656.007812-7.722656-3.261719-8-7.472656l-8-120c-.292968-4.417969 3.054688-8.234375 7.472657-8.527344s8.234375 3.054688 8.527343 7.472656l8 120c.144532 2.121094-.5625 4.214844-1.964843 5.816406-1.402344 1.601563-3.382813 2.574219-5.507813 2.710938-.175781 0-.359375 0-.527344 0zm0 0"/><path d="m240.007812 344c-4.417968 0-8-3.582031-8-8v-136c0-4.417969 3.582032-8 8-8 4.417969 0 8 3.582031 8 8v136c0 4.417969-3.582031 8-8 8zm0 0"/></g><path d="m8.007812 376h80c4.417969 0 8-3.582031 8-8v-8h64c4.417969 0 8-3.582031 8-8v-8h144v8c0 4.417969 3.582032 8 8 8h72v8c0 4.417969 3.582032 8 8 8h72c2.398438 0 4.671876-1.082031 6.191407-2.941406 1.519531-1.863282 2.121093-4.304688 1.640625-6.660156l-64-312c-.761719-3.71875-4.035156-6.394532-7.832032-6.398438h-8v-40c0-4.417969-3.582031-8-8-8h-304c-4.417968 0-8 3.582031-8 8v40h-5.800781c-3.777343 0-7.039062 2.640625-7.824219 6.335938l-66.207031 312c-.503906 2.363281.089844 4.824218 1.609375 6.703124 1.519532 1.875 3.808594 2.964844 6.222656 2.960938zm88-360h288v32h-288zm-15.3125 48h320.800782l60.710937 296h-54.199219v-8c0-.085938-.050781-.167969-.058593-.253906-.007813-.089844.050781-.1875 0-.273438l-8-120c-.289063-4.417968-4.109375-7.765625-8.527344-7.472656s-7.761719 4.109375-7.472656 8.527344l7.503906 111.472656h-63.445313v-8c0-.085938-.050781-.167969-.058593-.253906-.007813-.089844.050781-.1875 0-.273438l-8-120c-.289063-4.417968-4.109375-7.765625-8.527344-7.472656s-7.761719 4.109375-7.472656 8.527344l7.503906 111.472656h-63.445313v-128c0-4.417969-3.582031-8-8-8-4.417968 0-8 3.582031-8 8v128h-63.449218l7.449218-111.472656c.289063-4.417969-3.054687-8.234375-7.472656-8.527344-4.417968-.292969-8.238281 3.054688-8.527344 7.472656l-8 120c0 .085938.039063.175782.039063.273438 0 .09375-.039063.167968-.039063.253906v8h-55.449218l7.449218-111.472656c.289063-4.417969-3.054687-8.234375-7.472656-8.527344-4.417968-.292969-8.238281 3.054688-8.527344 7.472656l-8 120v.273438.253906 8h-62.128906zm0 0"/></svg>