<svg height="512pt" viewBox="0 -7 512.00019 512" width="512pt" xmlns="http://www.w3.org/2000/svg"><path d="m273.359375 102.074219h-135.691406l-7.945313 2.222656c-27.269531 7.625-48.890625 28.425781-57.574218 55.375l-46.410157 144.058594 62.199219 23.25 36.433594-94.242188v237.953125c0 10.789063 8.75 19.535156 19.539062 19.535156h136.59375l40-231.101562-13.613281-100.527344zm0 0" fill="#e95666"/><path d="m92.148438 169.671875c8.683593-26.949219 30.308593-47.75 57.574218-55.375l7.945313-2.222656h121.621093l-5.929687-10h-135.691406l-7.945313 2.222656c-27.269531 7.625-48.890625 28.425781-57.574218 55.375l-46.410157 144.058594 20.726563 7.746093zm0 0" fill="#d64655"/><path d="m439.851562 159.671875c-8.683593-26.953125-30.308593-47.75-57.578124-55.375l-7.945313-2.222656h-100.96875l33.53125 56.523437-48.066406 34.558594 2.519531 26.386719 19.15625 39.582031v231.101562h87.589844c10.789062 0 19.535156-8.746093 19.535156-19.535156v-237.953125l36.433594 94.242188 62.199218-23.25zm0 0" fill="#e95666"/><path d="m280.460938 202.363281c31.757812-6.222656 65.929687-29.449219 80.8125-55.703125 15.253906-26.917968 18.378906-61.71875 3.464843-89.46875-20.835937-38.777344-68.046875-49.6875-108.738281-49.6875-143.246094 0-137.496094 123.625-82.460938 165.863282 60.785157 46.652343 106.964844 85.761718 106.964844 85.761718v-54.335937z" fill="#e4e7eb"/><path d="m280.503906 192.214844h29.277344v298.011718h-29.277344zm0 0" fill="#d64655"/><path d="m279.628906 134.769531-29.722656 13.117188c18.433594 12.175781 29.773438 32.496093 30.550781 54.476562h.003907c9.753906-1.910156 19.738281-5.433593 29.320312-10.148437-1.863281-17.085938-8.320312-42.902344-30.152344-57.445313zm0 0" fill="#cac8c9"/><path d="m256 152.414062c1.933594-1.609374 3.964844-3.125 6.09375-4.527343 20.886719-13.800781 44.796875-34.925781 44.796875-59.335938 0-51.835937-50.890625-50.578125-50.890625-50.578125s-50.890625-1.257812-50.890625 50.578125c0 24.410157 23.90625 45.535157 44.796875 59.335938zm0 0" fill="#3a4047"/><path d="m415.226562 343.046875-8.371093-22.398437c-3.15625-8.441407 1.128906-17.839844 9.566406-20.996094l57.675781-21.558594c8.4375-3.152344 17.839844 1.132812 20.992188 9.570312l8.375 22.402344c3.152344 8.4375-1.132813 17.839844-9.570313 20.992188l-57.671875 21.558594c-8.441406 3.15625-17.839844-1.128907-20.996094-9.570313zm0 0" fill="#e4e7eb"/><path d="m96.769531 343.046875 8.375-22.398437c3.15625-8.441407-1.128906-17.839844-9.570312-20.996094l-57.671875-21.558594c-8.441406-3.152344-17.839844 1.132812-20.992188 9.570312l-8.375 22.402344c-3.15625 8.4375 1.128906 17.839844 9.570313 20.992188l57.671875 21.558594c8.441406 3.15625 17.839844-1.128907 20.992187-9.570313zm0 0" fill="#e4e7eb"/><path d="m35.128906 337.328125c-8.4375-3.152344-12.722656-12.554687-9.566406-20.992187l8.371094-22.402344c2.953125-7.902344 11.382812-12.160156 19.371094-10.082032l-15.402344-5.757812c-8.441406-3.15625-17.839844 1.128906-20.996094 9.570312l-8.371094 22.402344c-3.15625 8.4375 1.128906 17.835938 9.566406 20.992188zm0 0" fill="#cac8c9"/><g fill="#e4e7eb"><path d="m251.945312 303.285156c0 7.546875-6.121093 13.664063-13.667968 13.664063s-13.664063-6.117188-13.664063-13.664063 6.117188-13.667968 13.664063-13.667968 13.667968 6.121093 13.667968 13.667968zm0 0"/><path d="m251.945312 369.792969c0 7.546875-6.121093 13.664062-13.667968 13.664062s-13.664063-6.117187-13.664063-13.664062 6.117188-13.664063 13.664063-13.664063 13.667968 6.117188 13.667968 13.664063zm0 0"/><path d="m251.945312 436.300781c0 7.546875-6.121093 13.664063-13.667968 13.664063s-13.664063-6.117188-13.664063-13.664063 6.117188-13.664062 13.664063-13.664062 13.667968 6.117187 13.667968 13.664062zm0 0"/></g><path d="m238.277344 324.449219c11.671875 0 21.167968-9.496094 21.167968-21.164063 0-11.671875-9.496093-21.167968-21.167968-21.167968-11.667969 0-21.164063 9.496093-21.164063 21.167968 0 11.667969 9.496094 21.164063 21.164063 21.164063zm0-27.328125c3.398437 0 6.167968 2.761718 6.167968 6.164062 0 3.398438-2.769531 6.164063-6.167968 6.164063-3.398438 0-6.164063-2.765625-6.164063-6.164063 0-3.402344 2.765625-6.164062 6.164063-6.164062zm0 0"/><path d="m238.277344 390.957031c11.671875 0 21.167968-9.492187 21.167968-21.164062s-9.496093-21.164063-21.167968-21.164063c-11.667969 0-21.164063 9.492188-21.164063 21.164063 0 11.667969 9.496094 21.164062 21.164063 21.164062zm0-27.328125c3.398437 0 6.167968 2.765625 6.167968 6.164063 0 3.398437-2.769531 6.164062-6.167968 6.164062-3.398438 0-6.164063-2.765625-6.164063-6.164062 0-3.398438 2.765625-6.164063 6.164063-6.164063zm0 0"/><path d="m238.277344 457.464844c11.671875 0 21.167968-9.496094 21.167968-21.164063 0-11.671875-9.496093-21.164062-21.167968-21.164062-11.667969 0-21.164063 9.492187-21.164063 21.164062s9.496094 21.164063 21.164063 21.164063zm0-27.328125c3.398437 0 6.167968 2.765625 6.167968 6.164062 0 3.402344-2.769531 6.164063-6.167968 6.164063-3.398438 0-6.164063-2.765625-6.164063-6.164063 0-3.398437 2.765625-6.164062 6.164063-6.164062zm0 0"/><path d="m15.476562 338.085938s57.667969 21.554687 57.675782 21.554687c12.136718 4.539063 26.109375-1.832031 30.644531-13.96875l8.375-22.398437c3.304687-8.851563.992187-18.449219-5.152344-24.851563l9.855469-25.484375v197.753906c0 14.90625 12.125 27.035156 27.035156 27.035156h30.378906c4.144532 0 7.5-3.359374 7.5-7.5 0-4.140624-3.355468-7.5-7.5-7.5h-30.378906c-6.636718 0-12.035156-5.398437-12.035156-12.035156v-237.953125c0-3.613281-2.574219-6.710937-6.125-7.375-3.550781-.660156-7.070312 1.300781-8.371094 4.667969l-23.566406 60.953125-50.058594-18.710937 35.535156-110.300782c7.859376-24.398437 27.1875-43.140625 51.777344-50.261718.054688.382812.117188.761718.175782 1.140624 3.402343 22.484376 13.808593 44.039063 30.179687 59.933594 10.574219 10.261719 23.496094 18.808594 35.148437 27.960938 20.484376 15.609375 40.769532 31.738281 60.324219 48.5 1.550781 1.238281 12.269531 10.175781 16.109375 13.371094v220.109374h-68.714844c-4.140624 0-7.5 3.359376-7.5 7.5 0 4.144532 3.359376 7.5 7.5 7.5h163.800782c14.910156 0 27.035156-12.125 27.035156-27.035156v-197.753906l9.855469 25.484375c-6.144531 6.402344-8.457031 16-5.152344 24.851563 0 0 8.371094 22.394531 8.375 22.398437 4.515625 12.085937 18.574219 18.484375 30.644531 13.96875l57.675782-21.554687c12.300781-4.601563 18.566406-18.347657 13.96875-30.648438l-8.375-22.402344c-3.058594-8.179687-10.414063-13.980468-18.90625-15.222656l-36.222657-112.441406c-9.480469-29.429688-32.917969-51.96875-62.691406-60.300782l-2.308594-.644531c-.144531-15.09375-3.664062-29.804687-10.640625-42.785156-1.484375-2.757813-3.183594-5.527344-5.050781-8.230469-2.359375-3.40625-7.03125-4.257812-10.4375-1.902344-3.40625 2.359376-4.257813 7.03125-1.898437 10.4375 17.582031 25.414063 16.183593 59.894532 2.128906 86.5625-11.015625 20.894532-30.585938 36.152344-51.679688 46.019532-5.683594 2.660156-11.511718 4.863281-17.34375 6.527344-2.351562-14.972657-9.144531-28.875-19.390625-39.878907 30.570313-20.550781 46.710938-42.871093 46.710938-64.628906 0-17.542969-5.289063-31.601563-15.726563-41.785156-16.566406-16.160157-40.144531-16.320313-42.664062-16.292969-2.515625-.03125-26.097656.132812-42.660156 16.292969-10.4375 10.183593-15.726563 24.242187-15.726563 41.785156 0 22.097656 16.652344 44.78125 48.164063 65.59375 16.324218 10.785156 26.488281 28.898437 27.1875 48.464844l.003906.113281.035156 40.375c-.09375-.078125-.191406-.160156-.285156-.238281-27.335938-22.695313-55.09375-44.910157-83.199219-66.640625-9.71875-7.523438-19.378906-14.554688-26.703125-24.601563-.019531-.027343-.039062-.050781-.058594-.078125-5.726562-7.851562-10.308594-16.949218-13.410156-26.789062-10.386719-32.996094-.917969-69.980469 28.292969-90.035156 22.660156-15.558594 51.457031-19.710938 78.359375-19.710938 22.488281 0 54.359375 3.445312 78.511718 19.855469 3.425782 2.328125 8.089844 1.4375 10.417969-1.988281 2.328125-3.425782 1.4375-8.089844-1.988281-10.417969-27.304688-18.554688-62.347656-22.449219-86.941406-22.449219-33.304688 0-60.917969 6.480469-82.078125 19.261719-27.230469 16.453125-43.605469 45.351562-43.84375 77.144531l-2.371094.664062c-29.777344 8.328126-53.214844 30.871094-62.695313 60.300782l-36.21875 112.441406c-8.492187 1.242188-15.847656 7.042969-18.90625 15.226562l-8.375 22.402344c-4.597656 12.296875 1.667969 26.042969 13.96875 30.644532zm240.523438-195.121094c-.644531-.457032-1.296875-.902344-1.960938-1.339844-34.242187-22.617188-41.429687-41.347656-41.429687-53.074219 0-13.304687 3.742187-23.722656 11.125-30.972656 12.0625-11.851563 30.464844-12.109375 31.980469-12.109375h.097656c.105469.003906.242188.003906.347656 0 .195313-.003906 19.570313-.203125 32.105469 12.109375 7.378906 7.25 11.121094 17.667969 11.121094 30.96875 0 11.730469-7.1875 30.460937-41.429688 53.078125-.65625.4375-1.308593.882812-1.957031 1.339844zm232.066406 147.324218 8.375 22.402344c1.699219 4.550782-.621094 9.640625-5.171875 11.34375 0 0-57.671875 21.558594-57.671875 21.558594-4.417968 1.652344-9.648437-.636719-11.34375-5.171875 0 0-8.359375-22.367187-8.375-22.402344-1.679687-4.496093.691406-9.667969 5.171875-11.339843 0 0 57.496094-21.492188 57.671875-21.558594 4.496094-1.679688 9.664063.671875 11.34375 5.167968zm-159.015625-100.546874c17.691407-11.667969 33.382813-27.292969 42.496094-46.632813 4.792969-10.117187 7.945313-20.730469 9.4375-31.382813 24.566406 7.132813 43.871094 25.863282 51.726563 50.246094l35.535156 110.300782-50.058594 18.714843-23.566406-60.953125c-1.300782-3.371094-4.820313-5.332031-8.371094-4.671875-3.550781.664063-6.125 3.761719-6.125 7.375v237.953125c0 6.636719-5.398438 12.035156-12.035156 12.035156h-80.085938v-274.386718c14.078125-3.621094 28.285156-10.179688 41.046875-18.597656zm-313.492187 122.949218s8.371094-22.394531 8.375-22.402344c1.648437-4.414062 6.855468-6.847656 11.339844-5.167968 0 0 57.664062 21.554687 57.675781 21.558594 4.433593 1.65625 6.859375 6.824218 5.167969 11.339843 0 0-8.363282 22.382813-8.371094 22.402344-1.679688 4.484375-6.867188 6.84375-11.34375 5.171875l-57.671875-21.558594c-4.554688-1.703125-6.875-6.792968-5.171875-11.34375zm0 0"/></svg>