<?xml version="1.0" encoding="iso-8859-1"?>
<!-- Generator: Adobe Illustrator 19.0.0, SVG Export Plug-In . SVG Version: 6.00 Build 0)  -->
<svg version="1.1" id="Capa_1" xmlns="http://www.w3.org/2000/svg" xmlns:xlink="http://www.w3.org/1999/xlink" x="0px" y="0px"
	 viewBox="0 0 512 512" style="enable-background:new 0 0 512 512;" xml:space="preserve">
<polygon style="fill:#8CA4B8;" points="383.75,95.063 351.875,79.063 255.938,239.063 159.969,79.063 127.734,95.063 7,223.063 
	7,399.063 80,399.063 80,255.063 128,207.063 128,431.063 176,463.063 256,415.063 336,463.063 384,431.063 384,207.063 
	432,255.063 432,399.063 504,399.063 504,223.063 "/>
<g>
	<polygon style="fill:#627B8C;" points="384,175.063 384,431.063 368,441.732 368,175.063 	"/>
	<polygon style="fill:#627B8C;" points="128,175.063 128,431.063 144,441.732 144,175.063 	"/>
	<polygon style="fill:#627B8C;" points="256,239.063 160,79.063 208,47.062 304,47.062 352,79.063 	"/>
</g>
<polygon style="fill:#DAEDF7;" points="208,47.062 304,47.062 296,79.063 216,79.063 "/>
<g>
	<polygon style="fill:#FFFFFF;" points="256,239.063 160,79.063 208,47.062 	"/>
	<polygon style="fill:#FFFFFF;" points="256,239.063 352,79.063 304,47.062 	"/>
	<rect x="216.5" y="255.059" style="fill:#FFFFFF;" width="15" height="16"/>
	<rect x="216.5" y="303.059" style="fill:#FFFFFF;" width="15" height="16"/>
	<rect x="216.5" y="351.059" style="fill:#FFFFFF;" width="15" height="16"/>
	<rect x="7.5" y="367.059" style="fill:#FFFFFF;" width="72.5" height="32"/>
	<rect x="432" y="367.059" style="fill:#FFFFFF;" width="72.5" height="32"/>
</g>
<path d="M388.547,88.951l-32.775-16.137l-49.501-32.751H205.729l-49.501,32.751l-32.775,16.262L0,220.087v186.975h87V258.169l33-33
	v125.894h15v-17.986l36.59,24.227l8.195-12.48L135,315.049V175.063h-15v28.894l-33,33v-13.894H72v137H15V226.037l117.547-124.863
	l24.345-12.298L248,241.141v169.676l-72.29,43.374L135,427.049v-43.986h-15v52.014l55.539,36.859l80.336-48.126l80.024,48.126
	L391,435.076V225.169l33,33v148.894h88V220.087L388.547,88.951z M72,375.063v17H15v-17H72z M290.144,72.063h-68.289l-4.25-17h76.789
	L290.144,72.063z M286.394,87.063L256,208.641L225.606,87.063H286.394z M308.695,59.206l33.195,22.13l-66.39,110.65L308.695,59.206z
	 M203.305,59.206l33.195,132.78l-66.39-110.65L203.305,59.206z M391,203.956v-28.894h-15v139.987l-44.41,29.773l8.195,12.48
	L376,333.076v93.973l-40.71,27.141L263,410.816V241.141l91.608-152.263l24.72,12.298L497,226.037v134.025h-58v-137h-15v13.894
	L391,203.956z M439,392.063v-17h58v17H439z"/>
<g>
</g>
<g>
</g>
<g>
</g>
<g>
</g>
<g>
</g>
<g>
</g>
<g>
</g>
<g>
</g>
<g>
</g>
<g>
</g>
<g>
</g>
<g>
</g>
<g>
</g>
<g>
</g>
<g>
</g>
</svg>
