<svg height="512pt" viewBox="0 -2 512 511" width="512pt" xmlns="http://www.w3.org/2000/svg"><path d="m385.511719 222.914062c-9.140625 0-16.863281-7.0625-17.539063-16.320312-.03125-.429688-3.367187-43.40625-20.132812-85.320312-20.722656-51.800782-51.621094-78.066407-91.839844-78.066407s-71.117188 26.265625-91.839844 78.066407c-16.765625 41.914062-20.101562 84.890624-20.132812 85.320312-.71875 9.6875-9.160156 16.972656-18.839844 16.265625-9.691406-.710937-16.976562-9.128906-16.277344-18.820313.140625-1.945312 3.65625-48.167968 22.253906-95.070312 26.191407-66.054688 69.359376-100.96875 124.835938-100.96875s98.644531 34.914062 124.835938 100.96875c18.597656 46.902344 22.109374 93.128906 22.25 95.070312.703124 9.699219-6.589844 18.128907-16.289063 18.828126-.429687.03125-.859375.046874-1.285156.046874zm0 0" fill="#efedee"/><path d="m430.929688 205.308594c28.132812 31.164062 73.570312 93.097656 73.570312 168.066406 0 108.589844-83.359375 126.824219-248.5 126.824219s-248.5-18.234375-248.5-126.820313c0-74.972656 45.4375-136.90625 73.570312-168.070312zm0 0" fill="#febfcf"/><path d="m430.929688 205.308594h-349.859376c-8.386718 9.292968-18.3125 21.320312-28.117187 35.613281 4.089844 31.054687 16.03125 75.671875 49.761719 111.738281 36.097656 38.597656 87.671875 58.167969 153.285156 58.167969 65.617188 0 117.1875-19.570313 153.285156-58.167969 33.730469-36.066406 45.671875-80.683594 49.761719-111.738281-9.804687-14.292969-19.730469-26.320313-28.117187-35.613281zm0 0" fill="#fe8ea8"/><path d="m358.40625 153.550781c7.714844 29.179688 9.542969 52.722657 9.566406 53.042969.675782 9.257812 8.398438 16.320312 17.539063 16.320312.425781 0 .855469-.015624 1.285156-.046874 9.699219-.703126 16.992187-9.128907 16.289063-18.828126-.09375-1.289062-1.671876-22.058593-8.148438-49.585937-4.320312-.59375-8.699219-.902344-13.109375-.902344zm0 0" fill="#d4d4d4"/><path d="m130.171875 153.550781c-4.410156 0-8.789063.308594-13.109375.902344-6.476562 27.527344-8.058594 48.296875-8.152344 49.585937-.699218 9.691407 6.585938 18.109376 16.277344 18.816407 9.675781.710937 18.121094-6.574219 18.839844-16.265625.023437-.316406 1.851562-23.859375 9.566406-53.039063zm0 0" fill="#d4d4d4"/><path d="m256 380.832031c-186.695312 0-174.929688-175.523437-174.929688-175.523437 12.535157-13.878906 30.402344-21.757813 49.101563-21.757813h251.65625c18.699219 0 36.566406 7.878907 49.097656 21.757813.003907 0 11.769531 175.523437-174.925781 175.523437zm0 0" fill="#febfcf"/><path d="m270.523438 345.765625h-29.046876c-6.976562 0-12.636718 5.65625-12.636718 12.636719v44.855468c0 6.980469 5.660156 12.636719 12.636718 12.636719h29.046876c6.976562 0 12.636718-5.65625 12.636718-12.636719v-44.855468c0-6.980469-5.660156-12.636719-12.636718-12.636719zm0 0" fill="#efedee"/><path d="m177.339844 242.746094c-4.140625 0-7.5 3.359375-7.5 7.5v14.234375c0 4.144531 3.359375 7.5 7.5 7.5 4.144531 0 7.5-3.355469 7.5-7.5v-14.234375c0-4.140625-3.355469-7.5-7.5-7.5zm0 0"/><path d="m334.65625 242.746094c-4.140625 0-7.5 3.359375-7.5 7.5v14.234375c0 4.144531 3.359375 7.5 7.5 7.5 4.144531 0 7.5-3.355469 7.5-7.5v-14.234375c0-4.140625-3.355469-7.5-7.5-7.5zm0 0"/><path d="m280.351562 257.84375c-3.121093-2.726562-7.859374-2.40625-10.585937.710938-3.34375 3.828124-8.363281 6.023437-13.765625 6.023437s-10.421875-2.195313-13.765625-6.023437c-2.726563-3.117188-7.464844-3.4375-10.585937-.710938-3.117188 2.726562-3.433594 7.464844-.710938 10.582031 6.199219 7.089844 15.332031 11.152344 25.0625 11.152344s18.863281-4.0625 25.0625-11.152344c2.722656-3.117187 2.40625-7.855469-.710938-10.582031zm0 0"/><path d="m266.089844 380.832031c0 5.570313-4.519532 10.089844-10.089844 10.089844s-10.089844-4.519531-10.089844-10.089844c0-5.574219 4.519532-10.089843 10.089844-10.089843s10.089844 4.515624 10.089844 10.089843zm0 0"/><path d="m436.492188 200.28125c-7.933594-8.789062-17.835938-15.425781-28.742188-19.515625-3.078125-19.425781-8.945312-46.824219-19.945312-74.5625-27.417969-69.152344-72.996094-105.703125-131.804688-105.703125-34.316406 0-64.226562 12.488281-88.898438 37.125-2.929687 2.925781-2.9375 7.675781-.007812 10.605469 2.925781 2.929687 7.675781 2.933593 10.605469.007812 21.757812-21.722656 48.105469-32.738281 78.300781-32.738281 52.144531 0 92.898438 33.277344 117.863281 96.230469 9.355469 23.59375 14.835938 47.007812 18.007813 65.015625-.535156-.074219-1.070313-.132813-1.601563-.195313-2.800781-.324219-5.621093-.5-8.441406-.5h-10.660156c-2.960938-15.652343-8.027344-36.714843-16.363281-57.5625-21.972657-54.929687-55.214844-82.78125-98.804688-82.78125s-76.832031 27.851563-98.804688 82.78125c-8.335937 20.847657-13.402343 41.910157-16.363281 57.5625h-10.660156c-3.355469.007813-6.722656.234375-10.042969.695313 3.171875-18.003906 8.652344-41.417969 18.007813-65.011719 6.261719-15.785156 13.605469-29.90625 21.835937-41.96875 2.335938-3.421875 1.453125-8.085937-1.964844-10.421875-3.421874-2.335938-8.089843-1.453125-10.421874 1.96875-8.855469 12.976562-16.726563 28.082031-23.390626 44.890625-11 27.738281-16.871093 55.140625-19.949218 74.5625-10.90625 4.089844-20.804688 10.730469-28.738282 19.519531-28.203124 31.230469-75.507812 95.25-75.507812 173.09375 0 55.804688 21.230469 91.078125 66.816406 111.003906 37.894532 16.5625 92.703125 23.320313 189.183594 23.320313s151.289062-6.757813 189.179688-23.320313c45.589843-19.925781 66.820312-55.199218 66.820312-111.003906 0-77.839844-47.308594-141.863281-75.507812-173.097656zm-265.367188-76.222656c19.46875-48.671875 48.023438-73.351563 84.875-73.351563s65.40625 24.679688 84.875 73.351563c7.425781 18.566406 12.125 37.390625 15.011719 51.992187h-199.777344c2.886719-14.601562 7.589844-33.425781 15.015625-51.992187zm265.769531 113.460937c.515625-4.042969.917969-8.097656 1.203125-12.160156.003906-.015625.003906-.03125.003906-.046875 26.214844 32.691406 58.898438 85.925781 58.898438 148.066406 0 49.78125-17.835938 79.777344-57.828125 97.257813-44.359375 19.390625-114.25 22.066406-183.171875 22.066406s-138.8125-2.675781-183.175781-22.066406c-39.988281-17.480469-57.824219-47.476563-57.824219-97.257813 0-62.160156 32.703125-115.40625 58.917969-148.097656.007812.113281.019531.238281.027343.351562 1.175782 16.027344 4.101563 31.957032 8.859376 47.308594 14.90625 48.09375 49.527343 86.472656 97.253906 103.503906 13.171875 4.703126 26.851562 7.785157 40.703125 9.636719.195312.027344.382812.054688.578125.082031v17.09375c0 10.960938 9.175781 20.136719 20.136718 20.136719h29.042969c10.886719 0 20.136719-9.261719 20.136719-20.136719v-17.09375c.082031-.011718.15625-.023437.234375-.035156 23.707031-3.230468 46.964844-10.078125 67.84375-21.921875 7.554687-4.285156 14.691406-9.285156 21.355469-14.84375 3.339844-2.785156 3.515625-8.105469.410156-11.128906-2.671875-2.601563-7.109375-2.832031-10.042969-.367187-9.113281 7.636718-19.429687 14.042968-30.21875 19.03125-15.683593 7.25-32.496093 11.714843-49.582031 14.109374v-12.605468c0-10.941406-9.207031-20.136719-20.136719-20.136719h-29.042969c-10.972656 0-20.136718 9.175781-20.136718 20.136719v12.605468c-5.761719-.808593-11.496094-1.832031-17.164063-3.136718-21.796875-5.023438-42.746093-14.058594-60.292969-28.085938-34.265624-27.386718-51.234374-70.570312-54.78125-113.371094-.484374-5.851562-.808593-11.757812-.644531-17.632812 0-.070312 0-.152344.003907-.222656 0-.054688 0-.101563.003906-.15625 6.839844-6.910156 15.277344-11.957032 24.480468-14.773438.066407-.019531.128907-.023437.195313-.042968 10.972656-3.3125 22.636719-2.535157 33.957031-2.535157h217.796875c11.386719 0 22.910157-.800781 33.960938 2.535157.070312.019531.140625.03125.210937.050781 9.195313 2.816406 17.628906 7.859375 24.464844 14.765625.4375.441406.023438 3.296875.019531 3.867187-.289062 34.667969-9.425781 70.355469-29.226562 99.277344-1.566407 2.285156-3.59375 4.4375-4.964844 6.832031-2.003906 3.207032-1.21875 7.574219 1.769531 9.894532 3.226563 2.503906 8.015625 1.902343 10.523438-1.328126 8.992187-11.59375 16.246094-24.503906 21.863281-38.046874 6.796875-16.390626 11.128906-33.796876 13.378906-51.378907zm-200.554687 165.738281s0-44.851562 0-44.855468c0-2.722656 2.296875-5.136719 5.136718-5.136719h29.046876c2.71875 0 5.136718 2.316406 5.136718 5.136719v44.855468c0 2.835938-2.304687 5.136719-5.136718 5.136719h-29.046876c-2.832031.003907-5.136718-2.300781-5.136718-5.136719zm0 0"/></svg>