<svg height="480pt" viewBox="0 -31 480 479" width="480pt" xmlns="http://www.w3.org/2000/svg"><path d="m312 88.5v-48h-160v165.519531c-10.269531-3.675781-21.09375-5.542969-32-5.519531h-16c-53.019531 0-96 42.980469-96 96h186.960938c15.6875-10.503906 34.160156-16.074219 53.039062-16h16c10.90625-.023438 21.730469 1.84375 32 5.519531v-165.519531h-16v-32zm0 0" fill="#ff9811"/><path d="m194.960938 296.5h-186.960938v32h156.800781c7.425781-12.871094 17.75-23.828125 30.160157-32zm0 0" fill="#ff7956"/><path d="m296 120.5v165.519531c-10.269531-3.675781-21.09375-5.542969-32-5.519531h-16c-25.472656-.039062-49.914062 10.0625-67.925781 28.074219s-28.113281 42.453125-28.074219 67.925781h304v-256zm0 0" fill="#ffb655"/><path d="m152 376.5v32h304v-32zm0 0" fill="#ff7956"/><path d="m280 88.5v32h192v-32zm0 0" fill="#ff5023"/><path d="m328 40.5v-32h-192v32zm0 0" fill="#ff5023"/><path d="m152 40.5h160v16h-160zm0 0" fill="#ee8700"/><path d="m296 120.5h160v16h-160zm0 0" fill="#ffa733"/><path d="m472 80.5h-152v-32h8c4.417969 0 8-3.582031 8-8v-32c0-4.417969-3.582031-8-8-8h-192c-4.417969 0-8 3.582031-8 8v32c0 4.417969 3.582031 8 8 8h8v146.871094c-7.859375-1.890625-15.914062-2.855469-24-2.871094h-16c-57.410156.066406-103.9335938 46.589844-104 104v32c0 4.417969 3.582031 8 8 8h143.953125c-5.257813 12.679688-7.960937 26.273438-7.953125 40v32c0 4.417969 3.582031 8 8 8h304c4.417969 0 8-3.582031 8-8v-280h8c4.417969 0 8-3.582031 8-8v-32c0-4.417969-3.582031-8-8-8zm-328-64h176v16h-176zm-40 192h16c23.332031.046875 45.707031 9.296875 62.265625 25.734375l11.335937-11.335937c-2.59375-2.578126-5.324218-5.015626-8.175781-7.300782-.96875-.800781-2-1.472656-3-2.226562-1.921875-1.4375-3.859375-2.863282-5.875-4.160156-1.238281-.800782-2.511719-1.519532-3.78125-2.269532-1.867187-1.097656-3.746093-2.160156-5.671875-3.128906-1.378906-.695312-2.761718-1.335938-4.167968-1.96875-.976563-.441406-1.914063-.96875-2.90625-1.367188v-151.976562h143.976562v32h-24c-4.417969 0-8 3.582031-8 8v32c0 4.417969 3.582031 8 8 8h8v146.871094c-7.859375-1.890625-15.914062-2.855469-24-2.871094h-16c-19.585938-.050781-38.777344 5.5-55.3125 16h-176.328125c4.191406-45.289062 42.160156-79.945312 87.640625-80zm-88 96h157.007812c-4.679687 4.910156-8.867187 10.269531-12.503906 16h-144.503906zm432 96h-288v-16h288zm0-32h-287.640625c4.164063-45.300781 42.148437-79.976562 87.640625-80h16c10.050781-.019531 20.023438 1.710938 29.480469 5.113281 1.464843.488281 2.925781 1.046875 4.742187 1.824219 1.050782.390625 2.078125.839844 3.082032 1.34375l4.359374 2.160156c.800782.414063 1.535157.796875 2.230469 1.238282.203125.136718.761719.496093.96875.617187 1.375.75 2.671875 1.597656 4.191407 2.605469 1.644531 1.0625 3.230468 2.207031 4.753906 3.433594 1.230468.886718 2.398437 1.847656 3.503906 2.824218 1.703125 1.480469 3.328125 2.960938 4.96875 4.582032l11.320312-11.34375c-1.890624-1.886719-3.777343-3.605469-5.730468-5.300782-1.472656-1.289062-3.023438-2.570312-4.335938-3.496094l-.167968-.128906c-1.742188-1.398437-3.558594-2.703125-5.4375-3.914062-1.730469-1.191406-3.480469-2.285156-5.058594-3.199219l-.757813-.496094c-.929687-.542969-1.898437-1.0625-2.882812-1.597656l-1.972657-1.058594c-1.082031-.542969-2.167968-1.078125-2.746093-1.296875-1.386719-.699218-2.808594-1.324218-4.265625-1.871094l-.246094-.039062v-152h144zm16-256h-176v-16h176zm0 0"/></svg>