<svg height="511pt" viewBox="0 -46 511.99966 511" width="511pt" xmlns="http://www.w3.org/2000/svg"><path d="m481.519531 62.199219c.019531.320312.050781.632812.074219.957031-11.957031 4.324219-22.816406 9.199219-32.867188 14.898438-32.136718 18.234374-56.03125 44.9375-81.277343 89.191406-68.851563 112.261718-56.90625 177.269531-213.289063 177.269531-50.03125 0-87.824218-2.007813-114.464844-6.707031-16.945312 10.523437-29.054687 21.820312-29.652343 32.191406-1.714844 29.828125 48.609375 40.519531 164.117187 40.519531 156.382813 0 144.4375-65.007812 213.289063-177.269531 25.246093-44.253906 49.140625-70.953125 81.277343-89.191406 10.054688-5.699219 20.910157-10.574219 32.867188-14.898438-1.886719-28.128906-9.851562-50.046875-20.074219-66.960937zm0 0" fill="#ffbf47" fill-rule="evenodd"/><path d="m464.964844 146.265625c-30.257813 18.167969-53.269532 44.476563-77.515625 86.984375 9.554687 6.894531 16.757812 19.511719 22.1875 34.960938 18.945312 53.910156 16.269531 142.304687 16.269531 142.304687h.65625c.1875-1.558594.296875-3.390625.386719-5.5625 1.148437-29.179687 6.582031-86.78125 31.71875-200.242187 4.832031-21.820313 6.671875-41.21875 6.296875-58.445313zm0 0" fill="#ff9822" fill-rule="evenodd"/><path d="m511.585938 128.992188c-.007813-.429688-.03125-.863282-.097657-1.292969-.632812-8.929688-1.847656-17.550781-3.679687-25.824219-5.132813-23.15625-14.9375-43.679688-29.136719-60.996094-24.277344-29.601562-52.953125-39.457031-54.160156-39.859375-3.558594-1.195312-7.484375-.292969-10.167969 2.328125-84.003906 82.097656-110.828125 157.917969-130.417969 213.28125-5.414062 15.308594-10.53125 29.765625-16.121093 42.320313-19.613282 44.0625-56.101563 59.695312-81.390626 59.695312-14.726562 0-32.554687-5.707031-34.339843-21.785156-.300781-2.6875-1.671875-5.136719-3.808594-6.792969s-4.851563-2.378906-7.527344-2.003906c-19.238281 2.714844-53.25 14.273438-80.875 27.484375-38.6875 18.503906-58.8125 36.632813-59.8046872 53.878906-.5234378 9.148438 2.4101562 17.179688 8.7304682 23.871094 18.253907 19.332031 66.164063 27.21875 165.371094 27.21875 59.917969 0 99.042969-9.417969 126.847656-30.539063 26.40625-20.0625 40.710938-48.632812 58.820313-84.808593 8.398437-16.78125 17.75-35.457031 29.566406-55.691407 10.984375 15.285157 19.15625 44.675782 23.398438 84.855469 4.152343 39.332031 3.128906 75.523438 3.117187 75.882813-.082031 2.703125.9375 5.324218 2.820313 7.265625 1.882812 1.941406 4.46875 3.035156 7.175781 3.035156h22.871094c7.890625 0 14.316406-.359375 19.210937-4.914063 5.410157-5.035156 5.699219-12.324218 5.953125-18.757812 1.792969-45.472656 12.386719-112.25 31.492188-198.472656 5.476562-24.734375 7.527344-47.957032 6.152344-69.378906zm-169.640626 167.222656c-34.765624 69.445312-52.214843 104.300781-167.785156 104.300781-56.257812 0-133.101562-2.171875-150.832031-20.949219-2.488281-2.636718-3.507813-5.410156-3.300781-8.992187.304687-5.269531 10.851562-18.992188 48.46875-36.984375 24.226562-11.589844 49.910156-20.253906 66.289062-24.035156 7.035156 17.761718 26.480469 29.089843 51.628906 29.09375h.003907c31.28125 0 76.144531-18.742188 99.660156-71.566407 5.910156-13.273437 11.152344-28.09375 16.703125-43.78125 19.59375-55.382812 43.886719-124.042969 120.847656-201.007812 8.351563 3.929687 24.847656 13.304687 39.574219 31.265625 15.617187 19.039062 24.902344 42.085937 27.851563 68.90625-9.890626 3.898437-18.875 8.140625-27.261719 12.898437-33.144531 18.808594-58.558594 46.5625-84.945313 92.785157-15.433594 25.179687-26.839844 47.960937-36.902344 68.066406zm112.011719 99.84375c-.078125 1.984375-.175781 3.371094-.273437 4.339844-1.058594.070312-2.617188.117187-4.90625.117187h-12.738282c.042969-13.828125-.371093-39.878906-3.335937-68.070313-2.621094-24.921874-6.65625-45.859374-12.074219-62.746093 6.011719-8.953125 12.734375-17.867188 19.183594-26.25 3.367188-4.378907 2.546875-10.65625-1.832031-14.023438-4.378907-3.367187-10.65625-2.550781-14.023438 1.828125-4.074219 5.296875-8.257812 10.8125-12.339843 16.449219-3.453126-6.5625-7.269532-12.046875-11.429688-16.460937 23.261719-39.25 44.898438-62.269532 73.476562-78.484376 5.753907-3.265624 11.847657-6.273437 18.402344-9.09375-.15625 15.695313-2.203125 32.5-6.164062 50.382813-19.359375 87.382813-30.105469 155.347656-31.945313 202.011719zm0 0"/><path d="m443.847656 208.417969-.164062.152343c-4.027344 3.777344-4.234375 10.105469-.457032 14.132813 1.96875 2.101563 4.628907 3.164063 7.296876 3.164063 2.453124 0 4.910156-.898438 6.839843-2.707032l.378907-.359375c3.972656-3.839843 4.082031-10.171875.242187-14.144531-3.835937-3.96875-10.167969-4.078125-14.136719-.238281zm0 0"/><path d="m181.273438 362.300781c-.066407 0-.132813 0-.199219 0-20.074219.394531-39.816407.183594-58.667969-.621093-5.527344-.230469-10.183594 4.050781-10.417969 9.566406-.234375 5.519531 4.046875 10.183594 9.566407 10.417968 12.980468.554688 26.363281.832032 39.984374.832032 6.589844 0 13.242188-.066406 19.921876-.195313 5.523437-.109375 9.914062-4.671875 9.804687-10.195312-.105469-5.453125-4.5625-9.804688-9.992187-9.804688zm0 0"/><path d="m210.347656 360.300781-.460937.023438c-5.515625.25-9.785157 4.929687-9.53125 10.445312.242187 5.363281 4.667969 9.542969 9.980469 9.542969.152343 0 .308593-.003906.464843-.011719l.570313-.023437c5.515625-.28125 9.757812-4.984375 9.476562-10.5s-4.980468-9.792969-10.5-9.476563zm0 0"/></svg>