<svg height="512pt" viewBox="0 -89 512 512" width="512pt" xmlns="http://www.w3.org/2000/svg"><path d="m134.070312 10.449219h-123.621093v247.761719h355.917969c0-10.5625 1.132812-19.789063 2.996093-27.847657-113.785156-35.3125-224.765625-96.460937-235.292969-219.914062zm0 0" fill="#1eb615"/><path d="m138.96875 158.355469c0 23.082031-18.710938 41.796875-41.792969 41.796875-23.085937 0-41.796875-18.714844-41.796875-41.796875s18.710938-41.796875 41.796875-41.796875c23.082031 0 41.792969 18.714844 41.792969 41.796875zm0 0" fill="#fff"/><path d="m10.449219 258.214844h491.101562v65.480468h-491.101562zm0 0" fill="#e6e7e8"/><path d="m404.566406 180.027344s-38.199218 16.625-38.199218 78.183594h135.183593c0-61.558594-37.246093-63.273438-96.984375-78.183594zm0 0" fill="#fff"/><path d="m97.175781 106.109375c-28.808593 0-52.246093 23.4375-52.246093 52.246094 0 28.808593 23.4375 52.246093 52.246093 52.246093 28.804688 0 52.246094-23.4375 52.246094-52.246093 0-28.808594-23.441406-52.246094-52.246094-52.246094zm0 83.59375c-17.285156 0-31.347656-14.0625-31.347656-31.347656 0-17.285157 14.0625-31.347657 31.347656-31.347657 17.285157 0 31.347657 14.0625 31.347657 31.347657 0 17.285156-14.0625 31.347656-31.347657 31.347656zm0 0"/><path d="m486.632812 196.515625c-15.378906-11.402344-35.921874-16.25-61.929687-22.386719-5.660156-1.335937-11.515625-2.71875-17.609375-4.238281h-.003906c-35.363282-8.828125-65.667969-19.0625-91.128906-30.84375 1.09375-5.039063-1.671876-10.230469-6.65625-12.03125-4.171876-1.507813-8.671876-.1875-11.421876 2.96875-7.683593-4.1875-14.832031-8.550781-21.453124-13.097656 1.375-4.46875-.386719-9.46875-4.570313-12-3.515625-2.128907-7.78125-1.929688-11.03125.140625-6.0625-5.132813-11.550781-10.46875-16.460937-16.023438 2.320312-4.101562 1.640624-9.398437-1.953126-12.761718-2.703124-2.53125-6.390624-3.335938-9.730468-2.484376-4.316406-6.566406-7.941406-13.402343-10.882813-20.519531 2.921875-2.695312 4.175781-6.941406 2.84375-10.960937-1.316406-3.980469-4.796875-6.628906-8.703125-7.089844-1.957031-8.089844-3.160156-16.507812-3.601562-25.265625-.28125-5.558594-4.867188-9.921875-10.433594-9.921875h-191.457031c-5.769531 0-10.449219 4.679688-10.449219 10.449219v313.246093c0 5.769532 4.679688 10.449219 10.449219 10.449219h491.101562c5.769531 0 10.449219-4.679687 10.449219-10.449219v-65.484374c0-29.257813-8.0625-48.859376-25.367188-61.695313zm4.042969 51.25h-113.429687c.515625-6.265625 1.5-12.207031 2.957031-17.746094 6.363281-24.171875 19.945313-35.117187 25.832031-38.867187 4.773438 1.167968 9.382813 2.257812 13.867188 3.316406 44.992187 10.617188 67.476562 15.917969 70.773437 53.296875zm-469.777343-226.867187h171.375c.761718 6.800781 1.960937 13.433593 3.574218 19.894531l-9.015625 2.980469c-2.5625-1.632813-5.59375-2.589844-8.851562-2.589844-9.109375 0-16.523438 7.410156-16.523438 16.523437 0 9.109375 7.414063 16.523438 16.523438 16.523438 7.027343 0 13.027343-4.417969 15.414062-10.613281l8.964844-2.964844c3.914063 9.515625 8.855469 18.609375 14.824219 27.265625l-5.710938 6.101562c-.363281-.023437-.726562-.054687-1.097656-.054687-9.113281 0-16.523438 7.410156-16.523438 16.523437 0 9.109375 7.410157 16.523438 16.523438 16.523438 9.109375 0 16.519531-7.414063 16.519531-16.523438 0-.746093-.066406-1.472656-.160156-2.191406l3.574219-3.820313c5.644531 6.234376 11.890625 12.210938 18.746094 17.914063l-5.890626 9.730469c-8.011718 1.132812-14.199218 8.019531-14.199218 16.339844 0 9.113281 7.410156 16.523437 16.523437 16.523437 9.109375 0 16.523438-7.410156 16.523438-16.523437 0-1.9375-.355469-3.789063-.96875-5.519532l4.800781-7.933594c7.472656 5.082032 15.53125 9.9375 24.207031 14.578126l-4.445312 12.3125c-6.417969 2.273437-11.035157 8.382812-11.035157 15.566406 0 9.113281 7.414063 16.523437 16.523438 16.523437s16.523438-7.414062 16.523438-16.523437c0-3.09375-.871094-5.984375-2.359376-8.464844l3.652344-10.105469c21.003906 9.574219 45.089844 18.148438 72.566406 25.839844-7.992187 8.457031-16.558593 21.265625-21.480468 39.964844-1.902344 7.230469-3.144532 14.953125-3.714844 23.066406l-335.382812-.003906zm470.203124 292.347656h-470.203124v-44.585938h470.203124zm0 0"/><path d="m195.351562 279.886719h-4.675781c-5.769531 0-10.449219 4.679687-10.449219 10.449219 0 5.769531 4.679688 10.449218 10.449219 10.449218h4.675781c5.769532 0 10.449219-4.679687 10.449219-10.449218 0-5.769532-4.679687-10.449219-10.449219-10.449219zm0 0"/><path d="m156.871094 279.886719h-101.492188c-5.769531 0-10.449218 4.679687-10.449218 10.449219 0 5.769531 4.679687 10.449218 10.449218 10.449218h101.492188c5.769531 0 10.449218-4.679687 10.449218-10.449218 0-5.769532-4.679687-10.449219-10.449218-10.449219zm0 0"/></svg>