<svg height="512pt" viewBox="0 -118 512.0005 512" width="512pt" xmlns="http://www.w3.org/2000/svg"><path d="m10.449219 214.339844h119.816406v50.832031h-119.816406zm0 0" fill="#662c04"/><path d="m445.011719 210.648438c-160.761719-44.398438-244.132813-116-294.414063-173.039063-14.839844 5.082031-30.753906 7.84375-47.320312 7.84375-35.253906 0-67.589844-12.488281-92.828125-33.28125v202.167969h185.660156s81.496094 50.832031 152.960937 50.832031h120.097657c18.0625 0 29.671875-12.945313 31.960937-30.332031-15.417968-9.742188-34.007812-18.085938-56.117187-24.191406zm0 0" fill="#074761"/><path d="m10.449219 96.089844v118.25h118.246093c0-65.308594-52.9375-118.25-118.246093-118.25zm0 0" fill="#fff"/><path d="m10.449219 125.835938v88.503906h85.4375c-9.644531-43.148438-42.867188-77.390625-85.4375-88.503906zm0 0" fill="#662c04"/><path d="m422.660156 150.515625c-15.972656-3.835937-30.796875-8.117187-44.582031-12.746094-29.203125 34.441407-47.921875 78.046875-51.238281 125.898438 7.449218.960937 14.894531 1.503906 22.230468 1.503906h120.097657c47.980469 0 50.46875-91.355469-46.507813-114.65625zm0 0" fill="#fff"/><path d="m489.210938 258.203125c-10.609376-26.210937-37.660157-52.578125-86.214844-64.246094-18.527344-4.449219-35.726563-9.417969-51.722656-14.789062-.746094.875-1.476563 1.765625-2.210938 2.65625-12.410156 24.949219-20.199219 52.601562-22.222656 81.84375 7.449218.960937 14.890625 1.503906 22.230468 1.503906h120.097657c8.046875 0 14.808593-2.578125 20.042969-6.96875zm0 0" fill="#662c04"/><path d="m152.035156 250.207031h4.679688c5.769531 0 10.449218-4.679687 10.449218-10.449219 0-5.773437-4.679687-10.449218-10.449218-10.449218h-4.679688c-5.769531 0-10.449218 4.675781-10.449218 10.449218 0 5.769532 4.679687 10.449219 10.449218 10.449219zm0 0"/><path d="m171.242188 93.359375c2.675781 0 5.351562-1.019531 7.390624-3.0625l3.496094-3.496094c4.082032-4.082031 4.082032-10.699219 0-14.777343-4.082031-4.082032-10.699218-4.078126-14.777344 0l-3.5 3.5c-4.078124 4.082031-4.078124 10.695312.003907 14.777343 2.042969 2.039063 4.714843 3.058594 7.386719 3.058594zm0 0"/><path d="m200.019531 122.003906c2.675781 0 5.351563-1.023437 7.390625-3.0625l3.5-3.5c4.078125-4.082031 4.078125-10.695312-.003906-14.777344-4.082031-4.078124-10.695312-4.078124-14.777344.003907l-3.5 3.5c-4.078125 4.078125-4.078125 10.695312.003906 14.773437 2.042969 2.042969 4.714844 3.0625 7.386719 3.0625zm0 0"/><path d="m233.992188 150.019531c2.675781 0 5.347656-1.019531 7.390624-3.0625l3.496094-3.496093c4.078125-4.082032 4.078125-10.695313 0-14.777344-4.082031-4.082032-10.695312-4.082032-14.777344 0l-3.5 3.496094c-4.078124 4.082031-4.078124 10.695312 0 14.777343 2.042969 2.042969 4.71875 3.0625 7.390626 3.0625zm0 0"/><path d="m493.855469 180.425781c-15.464844-19.121093-39.238281-32.976562-68.757813-40.066406-15.589844-3.746094-30.039062-7.917969-43.476562-12.410156-.199219-.070313-.402344-.144531-.609375-.203125-59.007813-19.824219-98.128907-45.980469-125.804688-70.777344-.097656-.105469-.183593-.214844-.285156-.316406-.355469-.355469-.738281-.671875-1.132813-.964844-18.480468-16.761719-31.789062-32.839844-42.542968-45.835938-1.765625-2.132812-3.457032-4.175781-5.082032-6.113281-1.789062-2.140625-4.359374-3.472656-7.140624-3.7031248-2.78125-.2304682-5.535157.6601558-7.65625 2.4726558-24.515626 20.957032-55.800782 32.5-88.085938 32.5-31.390625 0-62-10.972656-86.1875-30.898437-3.121094-2.570313-7.449219-3.109375-11.101562-1.382813-3.660157 1.722657-5.992188 5.40625-5.992188 9.449219v252.996094c0 5.773437 4.679688 10.449219 10.449219 10.449219h185.660156c5.769531 0 10.449219-4.675782 10.449219-10.449219v-32.808594c27.851562 15.054688 87.375 43.257813 142.511718 43.257813h120.097657c22.527343 0 39.574219-16.140625 42.417969-40.160156 2.171874-18.355469-4.289063-38.414063-17.730469-55.035157zm-390.574219-124.519531c33.714844 0 66.480469-10.910156 93.375-30.90625 2.53125 3.054688 5.214844 6.28125 8.074219 9.644531l-12.097657 12.097657c-4.082031 4.082031-4.082031 10.695312 0 14.777343 2.039063 2.039063 4.714844 3.058594 7.386719 3.058594 2.675781 0 5.347657-1.019531 7.390625-3.058594l11.226563-11.226562c4.246093 4.550781 8.839843 9.246093 13.828125 14.039062l-11.054688 11.054688c-4.082031 4.078125-4.082031 10.695312 0 14.777343 2.039063 2.039063 4.714844 3.058594 7.386719 3.058594 2.675781 0 5.351563-1.019531 7.390625-3.058594l11.816406-11.816406c5.601563 4.742188 11.628906 9.527344 18.128906 14.304688l-10.75 10.753906c-4.082031 4.078125-4.082031 10.695312 0 14.773438 2.039063 2.042968 4.714844 3.0625 7.386719 3.0625 2.675781 0 5.351563-1.019532 7.390625-3.0625l13.492188-13.492188c23.0625 14.804688 48.875 27.488281 77.1875 38.003906-23.832032 32.046875-38.648438 69.265625-43.351563 108.9375-58.402343-10.730468-115.183593-45.738281-115.851562-46.152344-1.636719-1.023437-3.597657-1.585937-5.527344-1.585937h-57.390625c-5.058594-62.648437-55.171875-112.761719-117.820312-117.820313v-53.59375c24.609374 15.210938 53.203124 23.429688 82.382812 23.429688zm-82.382812 51.136719c51.121093 4.9375 91.910156 45.726562 96.847656 96.847656h-96.847656zm164.761718 147.679687h-164.761718v-4.515625h97.332031c5.773437 0 10.449219-4.679687 10.449219-10.449219 0-5.773437-4.675782-10.449218-10.449219-10.449218h-97.332031v-4.519532h164.761718zm305.171875-21.722656c-.601562 5.097656-3.949219 21.722656-21.664062 21.722656h-120.097657c-3.589843 0-7.214843-.144531-10.855468-.40625 4.5-38.304687 19.386718-74.105468 43.449218-104.429687 12.425782 3.984375 25.265626 7.597656 38.554688 10.789062 25 6.007813 44.84375 17.378907 57.386719 32.890625 9.921875 12.269532 14.742187 26.644532 13.226562 39.433594zm0 0"/></svg>