<svg height="512pt" viewBox="0 0 512 512" width="512pt" xmlns="http://www.w3.org/2000/svg"><g fill-rule="evenodd"><path d="m256 74.5c98.628906 0 181.660156 66.726562 206.445312 157.496094h-412.890624c24.785156-90.769532 107.816406-157.496094 206.445312-157.496094zm0 0" fill="#8ae7d3"/><path d="m256 139c9.609375 0 17.746094-6.304688 20.5-15.007812 8.101562 4.207031 18.3125 2.914062 25.109375-3.882813.003906-.003906.007813-.011719.011719-.015625 6.785156-6.792969 8.074218-17 3.871094-25.09375 5.667968-1.792969 10.320312-5.871094 12.875-11.15625 1.367187-2.824219 2.132812-5.996094 2.132812-9.34375 0-9.609375-6.308594-17.746094-15.007812-20.5 4.207031-8.097656 2.910156-18.3125-3.882813-25.105469-6.796875-6.796875-17.011719-8.089843-25.109375-3.886719-2.753906-8.703124-10.890625-15.007812-20.5-15.007812s-17.746094 6.304688-20.5 15.007812c-8.101562-4.207031-18.3125-2.914062-25.109375 3.882813-6.792969 6.796875-8.089844 17.007813-3.882813 25.105469-8.699218 2.753906-15.007812 10.890625-15.007812 20.503906 0 3.347656.765625 6.515625 2.132812 9.339844 2.550782 5.285156 7.207032 9.367187 12.875 11.160156-4.203124 8.09375-2.910156 18.296875 3.871094 25.09375.003906.003906.007813.007812.015625.011719 6.792969 6.796875 17.007813 8.089843 25.105469 3.886719 2.753906 8.699218 10.890625 15.007812 20.5 15.007812zm0 0" fill="#ffe7c3"/><path d="m462.378906 231.996094h-412.757812c-3.554688 12.898437-5.925782 26.273437-6.984375 40h426.726562c-1.058593-13.726563-3.429687-27.101563-6.984375-40zm0 0" fill="#ff836c"/><path d="m469.363281 271.996094h-426.726562c-.421875 5.449218-.636719 10.953125-.636719 16.503906v53.5h428v-53.5c0-5.550781-.214844-11.054688-.636719-16.503906zm0 0" fill="#ffe7c3"/><path d="m470 342h-428v40h428zm0 0" fill="#ff836c"/><path d="m42 382c-17.601562 0-32 14.402344-32 32v56c0 17.601562 14.398438 32 32 32h428c17.601562 0 32-14.398438 32-32v-56c0-17.597656-14.398438-32-32-32zm0 0" fill="#00c9af"/></g><path d="m480 373.210938v-84.710938c0-48.757812-15.5625-95.191406-45.003906-134.28125-26.527344-35.21875-63.414063-62.269531-104.632813-76.929688.082031-.921874.136719-1.847656.136719-2.789062 0-10.332031-4.953125-19.691406-12.957031-25.492188 1.558593-9.761718-1.558594-19.882812-8.863281-27.1875-7.308594-7.304687-17.421876-10.421874-27.1875-8.863281-5.800782-8.007812-15.160157-12.957031-25.492188-12.957031s-19.691406 4.949219-25.492188 12.957031c-9.765624-1.558593-19.882812 1.558594-27.1875 8.863281-7.304687 7.304688-10.421874 17.425782-8.863281 27.1875-8.003906 5.800782-12.957031 15.160157-12.957031 25.492188 0 .9375.054688 1.863281.136719 2.785156-17.675781 6.265625-34.519531 14.746094-50.1875 25.292969-4.582031 3.082031-5.792969 9.296875-2.710938 13.878906 1.933594 2.867188 5.089844 4.417969 8.304688 4.417969 1.921875 0 3.863281-.554688 5.574219-1.707031 14.664062-9.871094 30.453124-17.757813 47.027343-23.503907 1.445313 1.59375 3.050781 3.050782 4.8125 4.328126-1 6.265624-.066406 12.671874 2.65625 18.394531-10.890625 10.304687-20.449219 23.507812-27.933593 38.683593-2.4375 4.953126-.40625 10.945313 4.550781 13.390626 1.421875.699218 2.929687 1.03125 4.414062 1.03125 3.6875 0 7.234375-2.050782 8.976563-5.582032 6.464844-13.113281 14.628906-24.414062 23.839844-33.09375 6.003906 3.164063 12.859374 4.292969 19.546874 3.226563 5.800782 8.003906 15.164063 12.957031 25.492188 12.957031 10.332031 0 19.691406-4.953125 25.492188-12.957031 6.691406 1.066406 13.542968-.0625 19.546874-3.226563 9.214844 8.679688 17.375 19.980469 23.84375 33.097656 1.742188 3.53125 5.289063 5.578126 8.976563 5.578126 1.484375 0 2.992187-.332032 4.414063-1.03125 4.953124-2.445313 6.988281-8.441407 4.546874-13.394532-7.480468-15.171875-17.039062-28.375-27.933593-38.683594 2.722656-5.71875 3.660156-12.128906 2.65625-18.390624 1.761719-1.277344 3.363281-2.730469 4.804687-4.320313 59.710938 20.71875 105.878906 68.34375 126.246094 126.324219h-385.46875c7.316406-21.066406 18.175781-40.933594 32.371094-59.019532 3.410156-4.34375 2.65625-10.628906-1.691406-14.042968-4.34375-3.410156-10.628907-2.652344-14.039063 1.691406-31.246094 39.808594-47.765625 87.484375-47.765625 137.875v84.710938c-18.347656 4.5-32 21.074218-32 40.789062v56c0 23.160156 18.839844 42 42 42h428c23.160156 0 42-18.839844 42-42v-56c0-19.714844-13.65625-36.289062-32-40.789062zm-198.890625-258.09375c-2.621094-1.359376-5.710937-1.492188-8.4375-.363282s-4.816406 3.40625-5.707031 6.222656c-1.519532 4.796876-5.925782 8.023438-10.964844 8.023438-5.042969 0-9.449219-3.226562-10.96875-8.023438-.890625-2.816406-2.976562-5.09375-5.707031-6.222656-1.226563-.507812-2.527344-.761718-3.824219-.761718-1.585938 0-3.167969.378906-4.609375 1.125-4.464844 2.320312-9.863281 1.484374-13.429687-2.082032-3.5625-3.5625-4.398438-8.960937-2.078126-13.425781 1.359376-2.621094 1.492188-5.707031.363282-8.4375-1.132813-2.726563-3.40625-4.8125-6.222656-5.707031-4.800782-1.519532-8.023438-5.925782-8.023438-10.964844 0-5.042969 3.222656-9.449219 8.023438-10.96875 2.8125-.890625 5.089843-2.980469 6.222656-5.707031 1.128906-2.726563.996094-5.816407-.363282-8.433594-2.320312-4.46875-1.484374-9.863281 2.078126-13.429687 3.566406-3.5625 8.960937-4.398438 13.429687-2.082032 2.621094 1.363282 5.707031 1.496094 8.433594.363282 2.730469-1.128907 4.816406-3.40625 5.707031-6.21875 1.519531-4.800782 5.929688-8.023438 10.96875-8.023438s9.449219 3.222656 10.96875 8.023438c.890625 2.8125 2.976562 5.089843 5.707031 6.222656 2.726563 1.128906 5.8125.996094 8.433594-.363282 4.464844-2.320312 9.863281-1.484374 13.429687 2.078126 3.5625 3.566406 4.398438 8.960937 2.082032 13.429687-1.363282 2.617187-1.496094 5.707031-.367188 8.433594 1.132813 2.730469 3.40625 4.816406 6.222656 5.707031 4.800782 1.519531 8.023438 5.925781 8.023438 10.96875 0 5.039062-3.222656 9.449219-8.023438 10.964844-2.8125.894531-5.089843 2.980468-6.222656 5.710937-1.128906 2.726563-.996094 5.8125.363282 8.433594 2.320312 4.46875 1.484374 9.863281-2.078126 13.425781-3.566406 3.566406-8.964843 4.402344-13.429687 2.082032zm135.390625 345.847656c-5.523438 0-10 4.476562-10 10v21.035156h-33.5v-100h33.5v10c0 5.523438 4.476562 10 10 10 5.519531 0 10-4.476562 10-10v-10h33.5v100h-33.5v-21.035156c0-5.523438-4.480469-10-10-10zm-364.5-68.964844h33.5v100h-33.5zm408-103.5v43.5h-408v-43.5c0-2.175781.042969-4.339844.113281-6.503906h407.769531c.070313 2.164062.117188 4.328125.117188 6.503906zm-408 63.5h408v20h-408zm53.5 40h33.5v100h-33.5zm53.5 0h33.5v100h-33.5zm53.5 0h33.5v100h-33.5zm53.5 0h33.5v100h-33.5zm53.5 0h33.5v100h-33.5zm134.984375-150.003906c1.574219 6.574218 2.824219 13.246094 3.730469 20h-404.503906c.875-6.75 2.078124-13.421875 3.621093-20zm-434.484375 228.003906v-56c0-8.53125 4.882812-15.9375 12-19.585938v95.171876c-7.113281-3.648438-12-11.054688-12-19.585938zm472 0c0 8.53125-4.882812 15.9375-12 19.585938v-95.171876c7.117188 3.648438 12 11.054688 12 19.585938zm0 0"/><path d="m106.371094 145.878906c2.492187 0 4.988281-.925781 6.929687-2.789062l.074219-.074219c3.980469-3.828125 4.105469-10.160156.277344-14.140625s-10.160156-4.105469-14.140625-.277344c-.007813.007813-.054688.054688-.074219.074219-3.980469 3.828125-4.105469 10.160156-.277344 14.140625 1.964844 2.039062 4.585938 3.066406 7.210938 3.066406zm0 0"/><path d="m426.5 441.964844c0-5.523438-4.480469-10-10-10-5.523438 0-10 4.476562-10 10v.269531c0 5.523437 4.476562 10 10 10 5.519531 0 10-4.476563 10-10zm0 0"/></svg>