<svg height="512pt" viewBox="0 -46 512.00337 512" width="512pt" xmlns="http://www.w3.org/2000/svg"><path d="m342.128906 44.699219v-13.09375c0-11.933594-9.671875-21.605469-21.605468-21.605469-11.929688 0-21.605469 9.671875-21.605469 21.605469v13.09375" fill="#ffc96a"/><path d="m385.335938 300.851562-158.578126-19.390624-101.753906 55.164062c-13.460937 7.296875-7.488281 27.792969 7.785156 26.71875 38.167969-2.683594 76.125 5.519531 109.558594 23.394531zm0 0" fill="#4dbaf6"/><path d="m502 270.734375v-43.207031c0-100.027344-80.925781-181.144532-180.875-181.46875-66.210938 39.300781-110.597656 111.507812-110.597656 194.089844v52.609374c96.605468 21.957032 198.203125 14.621094 291.472656-22.023437zm0 0" fill="#72d8ff"/><path d="m307.375 137.402344c0-31.132813 14.902344-59.6875 38.980469-77.621094-7.730469-5.757812-16.398438-10.429688-25.832031-13.734375-38.820313 13.585937-64.8125 50.226563-64.8125 91.355469v163.445312c30.066406 3.960938 60.410156 5.144532 90.644531 3.566406-13.023438-.679687-26.027344-1.859374-38.980469-3.566406zm0 0" fill="#fff"/><path d="m385.335938 137.402344c0-31.132813-14.902344-59.6875-38.980469-77.621094-24.078125 17.933594-38.980469 46.484375-38.980469 77.621094v163.445312c12.953125 1.707032 25.957031 2.886719 38.980469 3.566406 13.023437-.679687 26.027343-1.859374 38.980469-3.566406zm0 0" fill="#ade5ff"/><path d="m352.128906 38.671875v-7.066406c0-17.425781-14.179687-31.605469-31.605468-31.605469-17.425782 0-31.601563 14.179688-31.601563 31.605469v7.066406c-90.597656 15.109375-159.875 94.035156-159.875 188.855469v37.253906l-116.300781 63.054688c-10.28125 5.570312-14.988282 16.859374-11.71875 28.082031 3.269531 11.230469 13.296875 18.222656 24.96875 17.398437 44.566406-3.132812 89.113281 9.46875 125.4375 35.480469 10.917968 7.816406 23.746094 11.761719 36.609375 11.761719 11.175781 0 22.378906-2.980469 32.378906-8.984375l40.4375-24.289063c4.734375-2.847656 6.265625-8.988281 3.421875-13.722656s-8.988281-6.269531-13.71875-3.421875l-40.4375 24.289063c-14.667969 8.808593-33.136719 8.066406-47.046875-1.894532-40.101563-28.714844-89.28125-42.625-138.484375-39.167968-2.957031.203124-4.007812-1.816407-4.363281-3.039063-.359375-1.226563-.566407-3.496094 2.046875-4.914063l117.476562-63.6875c57.914063 22.144532 118.707032 33.375 180.773438 33.375 7.515625 0 15.015625-.167968 22.496094-.5l-25.371094 15.242188c-4.734375 2.84375-6.269532 8.984375-3.425782 13.722656 1.875 3.121094 5.1875 4.851563 8.582032 4.851563 1.753906 0 3.527344-.460938 5.140625-1.429688l60.710937-36.46875c39.953125-5.40625 79.105469-15.589843 117-30.476562 3.828125-1.503907 6.34375-5.195313 6.34375-9.308594v-43.207031c-.003906-94.816406-69.28125-173.746094-159.875-188.855469zm-43.210937-7.066406c0-6.398438 5.207031-11.605469 11.605469-11.605469 6.398437 0 11.605468 5.207031 11.605468 11.605469v4.804687c-3.839844-.230468-7.707031-.363281-11.605468-.363281-3.898438 0-7.765626.132813-11.605469.363281zm-159.871094 232.261719v-36.339844c0-79.664063 54.601563-146.808594 128.34375-165.984375-19.8125 19.644531-31.679687 46.753906-31.679687 75.859375v76.371094c0 5.523437 4.476562 10 10 10 5.523437 0 10-4.476563 10-10v-76.371094c0-35.648438 21.882812-67.636719 54.8125-80.683594 32.929687 13.046875 54.8125 45.03125 54.8125 80.683594v154.6875c-75.984376 8.667968-153.386719-.738282-226.289063-28.222656zm342.953125 0c-31.535156 11.890624-63.917969 20.394531-96.664062 25.515624v-151.980468c0-29.105469-11.867188-56.210938-31.679688-75.859375 73.742188 19.175781 128.34375 86.320312 128.34375 165.984375zm0 0"/><path d="m255.714844 243.804688c-2.628906 0-5.210938 1.066406-7.082032 2.929687-1.859374 1.859375-2.917968 4.4375-2.917968 7.070313 0 2.636718 1.058594 5.207031 2.917968 7.078124 1.871094 1.859376 4.453126 2.929688 7.082032 2.929688s5.199218-1.070312 7.070312-2.929688c1.859375-1.871093 2.929688-4.441406 2.929688-7.078124 0-2.632813-1.070313-5.210938-2.929688-7.070313-1.871094-1.863281-4.441406-2.929687-7.070312-2.929687zm0 0"/><path d="m288.621094 348.949219c-2.640625 0-5.207032 1.058593-7.070313 2.929687-1.867187 1.859375-2.929687 4.429688-2.929687 7.066406 0 2.632813 1.0625 5.210938 2.929687 7.070313 1.863281 1.859375 4.441407 2.929687 7.070313 2.929687 2.632812 0 5.199218-1.070312 7.070312-2.929687 1.859375-1.859375 2.929688-4.4375 2.929688-7.070313 0-2.628906-1.070313-5.207031-2.929688-7.066406-1.859375-1.871094-4.4375-2.929687-7.070312-2.929687zm0 0"/></svg>