<svg height="512pt" viewBox="0 -79 512 512" width="512pt" xmlns="http://www.w3.org/2000/svg"><path d="m501.550781 264.347656c0-19.960937-22.859375-38.191406-60.578125-52.128906v.003906c-56.351562 25.707032-118.988281 40.039063-184.972656 40.039063-49.285156 0-96.699219-8-141.027344-22.757813-12.882812 10.265625-19.984375 21.484375-19.984375 33.242188 0 36.003906 66.511719 66.992187 162.035157 80.863281 135.140624-.175781 244.527343-35.59375 244.527343-79.261719zm0 0" fill="#88420e"/><path d="m202.699219 249.101562c-.199219-.023437-.398438-.046874-.597657-.070312.199219.023438.398438.046875.597657.070312zm0 0" fill="#88420e"/><path d="m156.851562 241.191406c-.089843-.023437-.183593-.042968-.273437-.0625.089844.019532.183594.042969.273437.0625zm0 0" fill="#88420e"/><path d="m169.644531 243.898438c-.09375-.019532-.183593-.035157-.277343-.054688.09375.019531.183593.035156.277343.054688zm0 0" fill="#88420e"/><path d="m163.269531 242.597656c-.121093-.023437-.238281-.050781-.359375-.074218.121094.023437.238282.050781.359375.074218zm0 0" fill="#88420e"/><path d="m440.886719 203.378906c.007812.40625.015625.800782.027343 1.1875-.011718-.386718-.019531-.78125-.027343-1.1875zm0 0" fill="#88420e"/><path d="m436.96875 155.679688c2.800781 20.082031 3.664062 37.386718 3.914062 47.613281-.25-10.222657-1.113281-27.527344-3.914062-47.613281zm0 0" fill="#88420e"/><path d="m242.960938 252.070312c-.792969-.023437-1.585938-.054687-2.378907-.082031.792969.027344 1.585938.058594 2.378907.082031zm0 0" fill="#88420e"/><path d="m440.917969 204.871094c.007812.335937.011719.660156.019531.976562-.007812-.316406-.011719-.640625-.019531-.976562zm0 0" fill="#88420e"/><path d="m249.480469 252.210938c-.6875-.007813-1.375-.027344-2.0625-.042969.6875.015625 1.375.035156 2.0625.042969zm0 0" fill="#88420e"/><path d="m229.90625 251.5c-.789062-.042969-1.574219-.09375-2.359375-.140625.785156.046875 1.570313.097656 2.359375.140625zm0 0" fill="#88420e"/><path d="m223.332031 251.074219c-.734375-.054688-1.464843-.109375-2.195312-.164063.730469.054688 1.460937.109375 2.195312.164063zm0 0" fill="#88420e"/><path d="m216.691406 250.542969c-.644531-.058594-1.289062-.113281-1.933594-.171875.644532.058594 1.289063.113281 1.933594.171875zm0 0" fill="#88420e"/><path d="m209.910156 249.898438c-.5-.050782-1-.101563-1.5-.152344.5.050781 1 .101562 1.5.152344zm0 0" fill="#88420e"/><path d="m236.445312 251.832031c-.816406-.035156-1.625-.074219-2.4375-.113281.8125.039062 1.621094.078125 2.4375.113281zm0 0" fill="#88420e"/><path d="m440.960938 207.507812c.003906.234376.003906.464844.007812.6875-.003906-.222656-.003906-.453124-.007812-.6875zm0 0" fill="#88420e"/><path d="m440.980469 211.515625v.136719c-.003907-.042969-.003907-.09375 0-.136719zm0 0" fill="#88420e"/><path d="m436.109375 149.839844c.300781 1.960937.585937 3.898437.851563 5.808594-5.335938-38.230469-17.703126-86.5-46.289063-115.082032-15.503906-15.507812-33.058594-30.117187-56.636719-30.117187-23.6875 0-44.558594 12.058593-56.808594 30.371093l-.507812.914063c-4.492188 6.648437-12.097656 11.019531-20.722656 11.019531h.003906c-8.625 0-16.234375-4.371094-20.722656-11.019531l-.507813-.914063c-5.867187-8.769531-13.714843-16.097656-22.898437-21.363281-33.476563 43.300781-48.886719 106.117188-55.964844 156.957031 32.179688 7.378907 65.679688 11.28125 100.09375 11.28125 64.09375 0 125.023438-13.519531 180.109375-37.855468zm0 0" fill="#88420e"/><path d="m440.972656 208.671875c0 .199219.003906.398437.003906.582031 0-.1875-.003906-.382812-.003906-.582031zm0 0" fill="#88420e"/><path d="m440.976562 209.691406c.003907.160156.003907.320313.003907.472656 0-.152343 0-.3125-.003907-.472656zm0 0" fill="#88420e"/><path d="m440.945312 206.246094c.003907.289062.007813.570312.011719.839844-.003906-.273438-.007812-.550782-.011719-.839844zm0 0" fill="#88420e"/><g fill="#0084ff"><path d="m221.136719 250.910156c-1.484375-.117187-2.964844-.238281-4.441407-.367187 1.476563.128906 2.957032.25 4.441407.367187zm0 0"/><path d="m227.546875 251.359375c-1.40625-.089844-2.8125-.183594-4.214844-.285156 1.402344.101562 2.808594.195312 4.214844.285156zm0 0"/><path d="m440.980469 210.960938c0 .203124 0 .382812-.003907.554687.003907-.171875.003907-.351563.003907-.554687zm0 0"/><path d="m234.007812 251.71875c-1.371093-.070312-2.738281-.136719-4.101562-.21875 1.363281.082031 2.730469.152344 4.101562.21875zm0 0"/><path d="m240.582031 251.988281c-1.378906-.046875-2.761719-.097656-4.136719-.152343 1.375.054687 2.757813.105468 4.136719.152343zm0 0"/><path d="m322.742188 247.300781c-3.960938.59375-7.933594 1.136719-11.925782 1.625 3.992188-.488281 7.964844-1.03125 11.925782-1.625zm0 0"/><path d="m369.378906 237.722656c-9.527344 2.496094-19.179687 4.683594-28.941406 6.558594 9.761719-1.875 19.414062-4.0625 28.941406-6.558594zm0 0"/><path d="m397.578125 229.324219c-9.269531 3.097656-18.671875 5.902343-28.199219 8.398437 9.527344-2.496094 18.929688-5.300781 28.199219-8.398437zm0 0"/><path d="m247.417969 252.167969c-1.488281-.027344-2.972657-.054688-4.457031-.097657 1.484374.042969 2.96875.070313 4.457031.097657zm0 0"/><path d="m256 252.261719c-2.175781 0-4.347656-.019531-6.519531-.050781 2.171875.03125 4.34375.050781 6.519531.050781zm0 0"/><path d="m440.972656 212.222656c-14.085937 6.425782-28.566406 12.144532-43.394531 17.101563 14.828125-4.957031 29.308594-10.675781 43.394531-17.101563.003906-.167968.003906-.359375.003906-.570312 0 .210937 0 .402344-.003906.570312zm0 0"/><path d="m440.9375 205.847656c0 .132813.003906.269532.003906.398438 0-.132813 0-.265625-.003906-.398438zm0 0"/><path d="m436.960938 155.648438c.003906.011718.003906.019531.007812.03125-.003906-.011719-.003906-.019532-.007812-.03125zm0 0"/><path d="m156.578125 241.128906c-2.085937-.472656-4.167969-.964844-6.242187-1.46875 2.074218.503906 4.15625.996094 6.242187 1.46875zm0 0"/><path d="m440.882812 203.289062c0 .027344 0 .058594.003907.089844 0-.03125-.003907-.058594-.003907-.089844zm0 0"/><path d="m440.914062 204.566406c0 .101563.003907.203125.003907.304688 0-.101563-.003907-.203125-.003907-.304688zm0 0"/><path d="m440.957031 207.085938c0 .140624.003907.28125.003907.421874 0-.140624-.003907-.277343-.003907-.421874zm0 0"/><path d="m440.96875 208.195312c0 .164063.003906.320313.003906.476563 0-.15625-.003906-.3125-.003906-.476563zm0 0"/><path d="m202.101562 249.03125c-10.945312-1.320312-21.769531-3.035156-32.457031-5.132812 10.6875 2.09375 21.511719 3.816406 32.457031 5.132812zm0 0"/><path d="m208.410156 249.746094c-1.90625-.203125-3.8125-.417969-5.710937-.644532 1.898437.226563 3.804687.441407 5.710937.644532zm0 0"/><path d="m214.757812 250.371094c-1.621093-.148438-3.234374-.308594-4.851562-.472656 1.617188.164062 3.230469.324218 4.851562.472656zm0 0"/><path d="m440.976562 209.253906c0 .152344 0 .292969.003907.4375-.003907-.144531-.003907-.285156-.003907-.4375zm0 0"/><path d="m169.367188 243.84375c-2.039063-.402344-4.070313-.816406-6.097657-1.246094 2.027344.429688 4.058594.84375 6.097657 1.246094zm0 0"/><path d="m162.910156 242.523438c-2.023437-.429688-4.042968-.875-6.058594-1.332032 2.015626.457032 4.035157.898438 6.058594 1.332032zm0 0"/><path d="m440.976562 211.652344c0-.042969 0-.09375 0-.136719.003907-.171875.003907-.355469.003907-.554687 0-.09375 0-.199219 0-.300782 0-.160156 0-.324218 0-.5 0-.148437 0-.308594-.003907-.472656 0-.140625 0-.285156 0-.433594 0-.1875-.003906-.386718-.003906-.582031 0-.15625-.003906-.316406-.003906-.476563-.003906-.222656-.007812-.453124-.007812-.691406-.003907-.136718-.003907-.277344-.003907-.417968-.003906-.273438-.007812-.550782-.015625-.84375 0-.128907-.003906-.261719-.003906-.398438-.007812-.316406-.011719-.640625-.019531-.976562 0-.097657-.003907-.203126-.003907-.304688-.011718-.386719-.019531-.777344-.027343-1.1875 0-.027344-.003907-.058594-.003907-.085938-.25-10.222656-1.113281-27.53125-3.914062-47.613281-.003906-.011719-.003906-.019531-.007812-.03125-.265626-1.910156-.550782-3.847656-.851563-5.804687-55.085937 24.335937-116.015625 37.855468-180.109375 37.855468-34.414062 0-67.917969-3.902343-100.09375-11.28125-3.53125 25.367188-4.988281 47.753907-5.574219 63.246094h.003907c2.074218.503906 4.15625.996094 6.242187 1.46875.089844.019532.183594.042969.273437.0625 2.015626.457032 4.035157.898438 6.058594 1.328125.121094.027344.238282.050781.359375.078125 2.027344.429688 4.058594.84375 6.097657 1.242188.09375.019531.183593.039062.277343.058594 10.6875 2.09375 21.511719 3.8125 32.457031 5.132812.199219.023438.398438.046875.597657.066406 1.902343.230469 3.804687.441406 5.714843.644532.496094.054687.996094.101562 1.496094.152343 1.613282.167969 3.230469.324219 4.847656.472657.644532.0625 1.292969.117187 1.9375.171874 1.476563.132813 2.957032.253907 4.441407.367188.730469.058594 1.464843.113281 2.195312.164062 1.402344.101563 2.808594.199219 4.214844.285157.785156.050781 1.574219.097656 2.359375.144531 1.367188.078125 2.734375.148438 4.101562.214844.8125.039062 1.625.082031 2.4375.117187 1.378907.058594 2.757813.109375 4.140626.152344.792968.027344 1.582031.058594 2.378906.082031 1.484375.042969 2.96875.070313 4.457031.101563.6875.011719 1.375.03125 2.0625.039062 2.167969.03125 4.339844.050781 6.519531.050781 18.558594 0 36.851563-1.132812 54.8125-3.335937 3.992188-.488281 7.96875-1.03125 11.925782-1.625 5.9375-.890625 11.839843-1.898437 17.695312-3.019531 9.765625-1.871094 19.417969-4.0625 28.945312-6.558594 9.527344-2.496094 18.929688-5.300781 28.199219-8.398438 14.828125-4.957031 29.308594-10.675781 43.394531-17.101562 0-.164062 0-.355469 0-.566406zm0 0"/></g><path d="m451.371094 205.039062c-.09375-5.160156-.347656-12.433593-.96875-21.191406-.71875-10.222656-1.933594-22.457031-3.96875-35.605468-.03125-.195313-.082032-.382813-.125-.574219-6.09375-38.730469-19.375-85.621094-48.246094-114.492188-17.230469-17.230469-36.914062-33.175781-64.027344-33.175781-26.34375 0-50.828125 13.089844-65.492187 35.007812-.160157.242188-.3125.488282-.453125.742188l-.253906.460938c-2.714844 3.792968-7.0625 6.054687-11.722657 6.09375-.039062 0-.074219 0-.113281 0-4.707031 0-9.101562-2.269532-11.839844-6.09375l-.253906-.460938c-.140625-.253906-.292969-.5-.453125-.742188-14.664063-21.921874-39.148437-35.007812-65.492187-35.007812-27.117188 0-46.796876 15.945312-64.027344 33.175781-28.871094 28.871094-42.152344 75.757813-48.246094 114.480469-.042969.195312-.09375.386719-.125.582031-2.035156 13.136719-3.246094 25.359375-3.964844 35.574219-.625 8.777344-.878906 16.066406-.976562 21.226562-39.691406 15.941407-60.621094 36.363282-60.621094 59.308594 0 26.457032 27.375 49.277344 79.160156 65.992188 47.386719 15.296875 110.191406 23.722656 176.839844 23.722656s129.453125-8.425781 176.839844-23.722656c51.785156-16.714844 79.160156-39.535156 79.160156-65.992188 0-22.945312-20.929688-43.371094-60.628906-59.308594zm-366.992188-40.25c54.488282 22.140626 112.152344 33.355469 171.621094 33.355469 59.464844 0 117.128906-11.214843 171.613281-33.355469 2.109375 17.597657 2.710938 32.316407 2.867188 40.679688-55.085938 24.117188-113.753907 36.34375-174.480469 36.34375-60.730469 0-119.398438-12.226562-174.488281-36.347656.160156-8.363282.757812-23.078125 2.867187-40.675782zm44.332032-116.835937c16.238281-16.238281 30.828124-27.054687 49.246093-27.054687 19.21875 0 37.089844 9.480468 47.894531 25.382812l.285157.519531c.148437.269531.308593.527344.480469.78125 6.574218 9.730469 17.476562 15.558594 29.195312 15.621094h.183594c11.789062 0 22.773437-5.839844 29.382812-15.621094.171875-.253906.332032-.511719.476563-.78125l.289062-.515625c10.804688-15.90625 28.675781-25.386718 47.890625-25.386718 18.421875 0 33.011719 10.816406 49.25 27.054687 22.1875 22.1875 34.679688 59.617187 41.171875 95.519531-53.363281 22.410156-109.992187 33.777344-168.457031 33.777344-58.46875 0-115.097656-11.367188-168.460938-33.777344 6.492188-35.902344 18.984376-73.335937 41.171876-95.519531zm297.710937 262.5c-45.371094 14.648437-105.894531 22.710937-170.421875 22.710937s-125.050781-8.0625-170.421875-22.710937c-40.5-13.074219-64.679687-30.308594-64.679687-46.105469 0-13.507812 18.53125-28.632812 49.800781-40.820312 58.449219 25.996094 120.765625 39.183594 185.300781 39.183594 64.53125 0 126.851562-13.1875 185.300781-39.183594 31.269531 12.1875 49.800781 27.3125 49.800781 40.820312 0 15.796875-24.179687 33.03125-64.679687 46.105469zm0 0"/><path d="m448.980469 253.5625c-1.109375 1.152344-2.371094 2.316406-3.742188 3.464844-4.425781 3.707031-5.011719 10.296875-1.308593 14.722656 2.066406 2.46875 5.03125 3.742188 8.019531 3.742188 2.363281 0 4.746093-.800782 6.699219-2.4375 1.945312-1.625 3.753906-3.304688 5.378906-4.992188 4.003906-4.15625 3.882812-10.769531-.273438-14.773438-4.15625-4.003906-10.769531-3.882812-14.773437.273438zm0 0"/><path d="m414.324219 273.984375c-14.085938 5.523437-30.839844 10.25-49.800781 14.046875-13.996094 2.808594-29.027344 5.0625-44.683594 6.703125-5.738282.601563-9.902344 5.742187-9.300782 11.480469.5625 5.371094 5.097657 9.359375 10.378907 9.359375.363281 0 .734375-.019531 1.101562-.058594 16.300781-1.707031 31.980469-4.0625 46.613281-6.992187 20.15625-4.039063 38.09375-9.113282 53.320313-15.082032 5.371094-2.105468 8.019531-8.167968 5.914063-13.542968-2.105469-5.371094-8.167969-8.019532-13.542969-5.914063zm0 0"/></svg>