<svg height="480pt" viewBox="0 -120 480 480" width="480pt" xmlns="http://www.w3.org/2000/svg"><path d="m408 232h-256c-79.527344 0-144-64.472656-144-144h384c44.183594 0 80 35.816406 80 80 0 35.347656-28.652344 64-64 64zm0 0" fill="#d3843d"/><path d="m224 8h32c66.273438 0 120 53.726562 120 120v8c0 8.835938-7.164062 16-16 16h-240c-8.835938 0-16-7.164062-16-16v-8c0-66.273438 53.726562-120 120-120zm0 0" fill="#ad6327"/><path d="m105.191406 112c-.753906 5.300781-1.152344 10.644531-1.191406 16v8c0 8.835938 7.164062 16 16 16h240c8.835938 0 16-7.164062 16-16v-8c-.039062-5.355469-.4375-10.699219-1.191406-16zm0 0" fill="#fdbd40"/><path d="m312 112c-17.671875 0-32-14.328125-32-32v-32c17.671875 0 32 14.328125 32 32zm0 0" fill="#aabece"/><path d="m344 176c-17.671875 0-32-14.328125-32-32v-32c17.671875 0 32 14.328125 32 32zm0 0" fill="#5a6470"/><path d="m136 200c-21.5625.023438-41.855469-10.207031-54.65625-27.558594-2.460938-3.671875-1.480469-8.644531 2.191406-11.105468 3.671875-2.460938 8.644532-1.480469 11.105469 2.191406 9.796875 12.953125 25.121094 20.535156 41.359375 20.472656 4.417969 0 8 3.582031 8 8s-3.582031 8-8 8zm0 0" fill="#fdbd40"/><path d="m416 208c-3.9375.015625-7.296875-2.835938-7.925781-6.71875-.632813-3.886719 1.660156-7.652344 5.398437-8.882812 10.667969-3.496094 18.050782-13.238282 18.527344-24.453126.03125-4.398437 3.601562-7.945312 8-7.945312h.0625c4.394531.035156 7.9375 3.605469 7.9375 8-.488281 18.09375-12.277344 33.933594-29.472656 39.59375-.816406.269531-1.667969.40625-2.527344.40625zm0 0" fill="#fdbd40"/><path d="m136 184c-16.238281.0625-31.5625-7.519531-41.359375-20.472656-2.460937-3.671875-7.433594-4.652344-11.105469-2.191406-3.671875 2.460937-4.652344 7.433593-2.191406 11.105468 12.800781 17.351563 33.09375 27.582032 54.65625 27.558594 4.417969 0 8-3.582031 8-8s-3.582031-8-8-8zm0 0"/><path d="m440 160c-4.382812 0-7.953125 3.527344-8 7.910156-.476562 11.21875-7.859375 20.96875-18.527344 24.464844-4.199218 1.398438-6.46875 5.929688-5.074218 10.128906 1.398437 4.199219 5.933593 6.46875 10.128906 5.070313 17.1875-5.652344 28.980468-21.488281 29.472656-39.574219 0-4.394531-3.542969-7.964844-7.9375-8zm0 0"/><path d="m392 80h-17.425781c-19.578125-48.300781-66.457031-79.9296875-118.574219-80h-32c-52.117188.0703125-98.996094 31.699219-118.574219 80h-97.425781c-4.417969 0-8 3.582031-8 8 .09375 83.910156 68.089844 151.90625 152 152h256c39.746094-.046875 71.953125-32.253906 72-72-.058594-48.578125-39.421875-87.941406-88-88zm-48.207031 40h23.800781c.191406 2.65625.40625 5.304688.40625 8v8c0 4.417969-3.582031 8-8 8h-8c-.03125-8.683594-2.914062-17.117188-8.207031-24zm-7.792969 24v22.632812c-9.582031-3.402343-15.988281-12.464843-16-22.632812v-22.632812c9.582031 3.402343 15.988281 12.464843 16 22.632812zm-224-16c0-2.695312.214844-5.34375.40625-8h191.59375v24h-184c-4.417969 0-8-3.582031-8-8zm176-48v-22.632812c9.582031 3.402343 15.988281 12.464843 16 22.632812v22.632812c-9.582031-3.402343-15.988281-12.464843-16-22.632812zm-64-64h32c52.570312.078125 98.027344 36.664062 109.34375 88h-45.34375v-24c-.027344-22.082031-17.917969-39.972656-40-40-4.417969 0-8 3.582031-8 8v32c.03125 8.683594 2.914062 17.117188 8.207031 24h-165.550781c11.316406-51.335938 56.773438-87.921875 109.34375-88zm184 208h-256c-71.96875-.089844-131.441406-56.160156-135.769531-128h84c-1.269531 4.890625-2.25 9.851562-2.925781 14.855469v.402343c-.296876 2.261719-.542969 4.535157-.71875 6.832032-.386719 3.460937-.585938 6.773437-.585938 9.910156v8c0 13.253906 10.746094 24 24 24h187.390625c6.355469 14.558594 20.722656 23.980469 36.609375 24 4.417969 0 8-3.582031 8-8v-16h8c13.253906 0 24-10.746094 24-24v-8c0-3.136719-.199219-6.449219-.503906-9.910156-.175782-2.296875-.425782-4.570313-.71875-6.832032v-.402343c-.699219-5.007813-1.699219-9.96875-2.992188-14.855469h12.214844c39.746094.046875 71.953125 32.253906 72 72-.035156 30.914062-25.085938 55.964844-56 56zm0 0"/></svg>