<svg height="480pt" viewBox="-72 0 480 480.00102" width="480pt" xmlns="http://www.w3.org/2000/svg"><path d="m236.621094 147.386719 51.097656-51.097657c8.085938-8.089843 10.503906-20.253906 6.128906-30.824218-4.378906-10.570313-14.691406-17.460938-26.128906-17.464844h-11.714844v-11.710938c0-11.441406-6.894531-21.753906-17.460937-26.128906-10.570313-4.378906-22.734375-1.960937-30.824219 6.128906l-135.425781 135.425782c-8.089844 8.089844-10.507813 20.253906-6.128907 30.824218 4.375 10.566407 14.6875 17.460938 26.128907 17.460938h11.710937v11.714844c.003906 11.4375 6.894532 21.75 17.464844 26.128906 10.570312 4.375 22.734375 1.957031 30.824219-6.128906l7.710937-7.714844c26.238282 47.230469 40.007813 100.371094 40 154.402344v53.597656h128v-5.472656c.003906-100.398438-32.007812-198.179688-91.382812-279.140625zm0 0" fill="#f7ce49"/><path d="m208.003906 416h16v64h-16zm0 0" fill="#a75b25"/><path d="m240.003906 416h16v64h-16zm0 0" fill="#a75b25"/><path d="m272.003906 416h16v64h-16zm0 0" fill="#a75b25"/><path d="m304.003906 416h16v64h-16zm0 0" fill="#a75b25"/><path d="m208.003906 224c-.011718-19.128906 2.835938-38.15625 8.449219-56.445312l-56.449219 56.445312c26.238282 47.230469 40.007813 100.371094 40 154.402344v53.597656h128v-5.472656c0-8.292969-.296875-16.566406-.734375-24.796875-72.144531-29.542969-119.269531-99.769531-119.265625-177.730469zm0 0" fill="#dd9e25"/><path d="m144.246094 112.121094c.019531-13.597656 2.53125-27.074219 7.40625-39.769532l.351562-.351562-55.710937-55.710938c-8.089844-8.089843-20.253907-10.507812-30.824219-6.128906-10.570312 4.375-17.460938 14.6875-17.464844 26.128906v11.710938h-11.710937c-11.441407.003906-21.753907 6.894531-26.128907 17.464844-4.378906 10.570312-1.960937 22.734375 6.128907 30.824218l55.710937 55.710938.289063-.285156c-8.089844 8.089844-10.507813 20.253906-6.128907 30.824218 4.375 10.566407 14.6875 17.460938 26.128907 17.460938h11.710937v11.714844c.003906 11.4375 6.894532 21.75 17.464844 26.128906 10.570312 4.375 22.734375 1.957031 30.824219-6.128906l33.007812-33.011719c-26.007812-21.21875-41.085937-53.015625-41.054687-86.582031zm0 0" fill="#dd9e25"/><g fill="#a75b25"><path d="m122.351562 170.34375 72-72.003906 11.3125 11.316406-72 72zm0 0"/><path d="m210.351562 82.34375 16-15.996094 11.3125 11.3125-15.996093 15.996094zm0 0"/><path d="m74.351562 85.660156 11.3125-11.3125 32 32-11.3125 11.3125zm0 0"/><path d="m224.246094 297.9375-5.042969-20.097656c-6.828125-27.320313-20.957031-52.269532-40.871094-72.183594l11.3125-11.3125c21.964844 21.964844 37.546875 49.488281 45.082031 79.625l5.023438 20.097656zm0 0"/><path d="m225.605469 212.800781-23.3125-31.085937 11.441406-11.402344 24.671875 32.886719zm0 0"/></g><path d="m264.003906 400 32-32 31.113282 31.113281c-.871094-15.007812-2.398438-29.921875-4.695313-44.695312l-26.417969-26.417969-32 32-32-32-32.503906 32.503906-.054688.152344c.328126 5.890625.558594 11.792969.558594 17.710938v21.632812l32-32zm0 0" fill="#f6f6e7"/><path d="m293.371094 101.9375c10.378906-10.375 13.484375-25.984375 7.867187-39.539062-5.613281-13.558594-18.847656-22.398438-33.519531-22.398438h-3.714844v-3.71875c0-14.675781-8.84375-27.902344-22.402344-33.519531-13.558593-5.617188-29.164062-2.511719-39.539062 7.863281l-50.058594 50.0625-50.054687-50.0625c-10.378907-10.375-25.984375-13.480469-39.542969-7.863281-13.558594 5.617187-22.398438 18.84375-22.402344 33.519531v3.71875h-3.710937c-14.675781-.003906-27.910157 8.835938-33.527344 22.394531-5.621094 13.558594-2.515625 29.164063 7.863281 39.542969l50.824219 50.863281c-6.921875 11.167969-7.242187 25.210938-.832031 36.679688 6.40625 11.472656 18.53125 18.5625 31.671875 18.519531h3.710937v3.722656c0 14.664063 8.828125 27.890625 22.375 33.511719s29.148438 2.535156 39.53125-7.824219c22.335938 43.644532 34.019532 91.960938 34.09375 140.992188v53.597656c0 4.417969 3.582032 8 8 8h8v40h16v-40h16v40h16v-40h16v40h16v-40h16v40h16v-40h8c4.417969 0 8-3.582031 8-8v-5.472656c.191406-99.773438-30.925781-197.089844-88.96875-278.246094zm-271.421875-11.3125c-5.804688-5.800781-7.539063-14.527344-4.398438-22.105469 3.140625-7.582031 10.539063-12.523437 18.742188-12.519531h11.710937c4.417969 0 8-3.582031 8-8v-11.71875c.003906-8.203125 4.949219-15.59375 12.523438-18.730469 7.578125-3.140625 16.296875-1.410156 22.101562 4.386719l50.0625 50.0625-28.6875 28.6875-26.34375-26.34375-11.3125 11.3125 26.34375 26.34375-28.6875 28.6875zm124.679687 135.441406c-5.804687 5.792969-14.523437 7.523438-22.101562 4.386719-7.574219-3.140625-12.519532-10.53125-12.523438-18.730469v-11.722656c0-4.417969-3.582031-8-8-8h-11.710937c-8.203125.003906-15.601563-4.9375-18.742188-12.515625-3.140625-7.582031-1.40625-16.308594 4.398438-22.105469l67.710937-67.722656 12-12 55.710938-55.71875c5.804687-5.800781 14.527344-7.535156 22.109375-4.398438 7.578125 3.140626 12.523437 10.539063 12.523437 18.742188v11.71875c0 4.417969 3.582032 8 8 8h11.714844c8.203125-.003906 15.601562 4.9375 18.742188 12.519531 3.140624 7.578125 1.402343 16.304688-4.398438 22.105469zm173.375 197.933594h-112v-20.6875l24-24 26.34375 26.34375c3.125 3.125 8.1875 3.125 11.3125 0l26.34375-26.34375 23.351563 23.351562c.351562 7.089844.601562 14.199219.648437 21.335938zm-2.566406-45.878906-15.769531-15.777344c-3.125-3.121094-8.1875-3.121094-11.3125 0l-26.351563 26.34375-26.34375-26.34375c-3.125-3.121094-8.1875-3.121094-11.3125 0l-18.34375 18.34375v-2.285156c0-4.875-.246094-9.738282-.464844-14.59375l24.464844-24.496094 26.34375 26.34375c3.125 3.125 8.1875 3.125 11.3125 0l26.34375-26.34375 18.945313 18.945312c.964843 6.589844 1.792969 13.210938 2.480469 19.863282zm-7.328125-47.335938-8.441406-8.441406c-3.125-3.121094-8.1875-3.121094-11.3125 0l-26.351563 26.34375-26.34375-26.34375c-3.125-3.121094-8.1875-3.121094-11.3125 0l-20.4375 20.433594c-4.527344-41.011719-16.785156-80.796875-36.128906-117.242188l14.03125-14.03125c17.050781 18.882813 29.203125 41.660156 35.390625 66.335938l5.027344 20.097656 15.519531-3.871094-5.023438-20.097656c-6.902343-27.488281-20.511718-52.839844-39.617187-73.777344l12-12 18.496094 24.609375 12.800781-9.601562-19.839844-26.445313 16.984375-16.984375c36.253907 51.324219 61.625 109.523438 74.550781 171.015625zm0 0"/><path d="m122.351562 170.34375 72-72.003906 11.3125 11.316406-72 72zm0 0"/><path d="m210.351562 82.34375 16-15.996094 11.3125 11.3125-15.996093 15.996094zm0 0"/></svg>