<svg height="504pt" viewBox="0 0 504.26477 504" width="504pt" xmlns="http://www.w3.org/2000/svg"><path d="m167.835938 159.316406v25.179688c0 4.636718-3.757813 8.394531-8.394532 8.394531h-83.933594c-4.632812 0-8.390624-3.757813-8.390624-8.394531v-25.179688c-.027344-2.832031.339843-5.660156 1.089843-8.390625 3.804688-14.832031 17.171875-25.195312 32.480469-25.183593h33.574219c15.308593-.011719 28.679687 10.351562 32.484375 25.183593.75 2.730469 1.117187 5.558594 1.089844 8.390625zm0 0" fill="#ff9801"/><path d="m92.296875 126.835938v-26.273438c0-4.636719 3.757813-8.394531 8.390625-8.394531h33.574219c4.636719 0 8.394531 3.757812 8.394531 8.394531v26.273438zm0 0" fill="#fec108"/><path d="m225.5 394.667969-59.175781 18.214843-48.847657-219.992187h29.796876l77.472656 185.328125c2.207031 5.214844 2.476562 11.054688.753906 16.449219zm0 0" fill="#f44335"/><g fill="#c52828"><path d="m117.476562 192.890625-48.851562 219.992187-59.171875-18.214843c-1.722656-5.394531-1.457031-11.234375.753906-16.449219l77.472657-185.328125zm0 0"/><path d="m225.5 394.667969c-1.335938 4.425781-3.894531 8.386719-7.386719 11.417969l-94.679687 86.703124c-1.632813 1.472657-3.757813 2.28125-5.957032 2.265626v-67.148438l48.847657-15.023438zm0 0"/><path d="m117.476562 427.90625v67.148438c-2.199218.015624-4.324218-.792969-5.960937-2.265626l-94.675781-86.703124c-3.492188-3.03125-6.050782-6.992188-7.386719-11.417969l59.171875 18.214843zm0 0"/></g><path d="m166.324219 412.882812-48.847657 15.023438-48.851562-15.023438 48.851562-219.992187zm0 0" fill="#f44335"/><path d="m436.425781 159.316406v25.179688c0 4.636718-3.757812 8.394531-8.390625 8.394531h-83.9375c-4.632812 0-8.390625-3.757813-8.390625-8.394531v-25.179688c-.027343-2.832031.339844-5.660156 1.089844-8.390625 3.804687-14.832031 17.175781-25.195312 32.484375-25.183593h33.570312c15.308594-.011719 28.679688 10.351562 32.484376 25.183593.75 2.730469 1.117187 5.558594 1.089843 8.390625zm0 0" fill="#f57c00"/><path d="m360.886719 126.835938v-26.273438c0-4.636719 3.757812-8.394531 8.394531-8.394531h33.570312c4.636719 0 8.394532 3.757812 8.394532 8.394531v26.273438zm0 0" fill="#fec108"/><path d="m494.089844 394.667969-59.171875 18.214843-1.597657-7.21875-47.253906-212.773437h29.796875l77.472657 185.328125c2.210937 5.214844 2.476562 11.054688.753906 16.449219zm0 0" fill="#c52828"/><path d="m411.246094 159.316406v25.179688c0 4.636718-3.757813 8.394531-8.394532 8.394531h-58.753906c-4.632812 0-8.390625-3.757813-8.390625-8.394531v-25.179688c-.027343-2.832031.339844-5.660156 1.089844-8.390625 3.804687-14.832031 17.175781-25.195312 32.484375-25.183593h8.390625c15.308594-.011719 28.679687 10.351562 32.484375 25.183593.75 2.730469 1.117188 5.558594 1.089844 8.390625zm0 0" fill="#ff9801"/><path d="m468.910156 394.667969-35.589844 10.996093-47.253906-212.773437h4.617188l77.46875 185.328125c2.210937 5.214844 2.480468 11.054688.757812 16.449219zm0 0" fill="#f44335"/><path d="m386.066406 192.890625-48.851562 219.992187-59.171875-18.214843c-1.722657-5.394531-1.457031-11.234375.753906-16.449219l77.4375-185.328125zm0 0" fill="#c52828"/><path d="m494.054688 394.667969c-1.332032 4.425781-3.894532 8.386719-7.382813 11.417969l-94.679687 86.703124c-1.625 1.464844-3.738282 2.273438-5.925782 2.265626v-67.148438l48.851563-15.023438zm0 0" fill="#c52828"/><path d="m386.066406 427.90625v67.148438c-2.199218.015624-4.324218-.792969-5.960937-2.265626l-94.710938-86.703124c-3.488281-3.03125-6.050781-6.992188-7.386719-11.417969l59.175782 18.214843zm0 0" fill="#c52828"/><path d="m434.882812 412.882812-48.851562 15.023438-48.847656-15.023438 48.847656-219.992187zm0 0" fill="#f44335"/><path d="m105.902344 499.035156c6.605468 5.929688 16.628906 5.902344 23.207031-.058594l94.527344-86.582031c10.667969-9.285156 14.222656-24.339843 8.828125-37.417969l-72.601563-173.691406c9.105469-.226562 16.371094-7.679687 16.367188-16.789062v-25.179688c-.023438-16.667968-9.90625-31.742187-25.179688-38.40625v-20.347656c0-9.269531-7.515625-16.785156-16.789062-16.785156h-8.390625v-20.28125c0-1.339844 1.785156-3.429688 4.765625-4.574219 3.855469-1.46875 7.40625-3.636719 10.46875-6.402344 6.320312-5.554687 9.945312-13.566406 9.945312-21.984375 0-8.414062-3.625-16.425781-9.945312-21.980468-13.296875-11.230469-32.753907-11.230469-46.046875 0-3.386719 3.125-3.617188 8.394531-.523438 11.804687 3.097656 3.414063 8.363282 3.691406 11.804688.625 6.820312-5.628906 16.675781-5.628906 23.5 0 2.765625 2.410156 4.375 5.882813 4.421875 9.550781-.050781 3.667969-1.660157 7.140625-4.429688 9.542969-1.519531 1.371094-3.28125 2.445313-5.195312 3.167969-8.882813 2.871094-15.070313 10.929687-15.554688 20.25v20.28125h-8.394531c-9.269531 0-16.785156 7.515625-16.785156 16.785156v20.347656c-15.277344 6.664063-25.160156 21.738282-25.179688 38.40625v25.179688c-.003906 9.109375 7.257813 16.5625 16.367188 16.789062l-72.605469 173.742188c-5.363281 13.007812-1.859375 27.980468 8.714844 37.261718zm-70.949219-87.738281 74.128906 22.8125v45.066406zm82.523437 7.832031-38.972656-11.996094 38.972656-175.515624 38.96875 175.515624zm8.394532 59.59375v-44.613281l74.003906-22.769531zm92.160156-90.53125-45.476562 13.988282-44.613282-200.894532h13.742188l75.304687 180.140625c.84375 2.148438 1.199219 4.460938 1.042969 6.765625zm-117.34375-287.628906h33.574219v16.789062h-33.574219zm0 33.574219h33.574219c10.632812.042969 20.09375 6.761719 23.636719 16.789062h-15.242188c-4.636719 0-8.394531 3.757813-8.394531 8.390625 0 4.636719 3.757812 8.394532 8.394531 8.394532h16.785156v16.785156h-83.933594v-16.785156h33.574219c4.636719 0 8.394531-3.757813 8.394531-8.394532 0-4.632812-3.757812-8.390625-8.394531-8.390625h-32.027343c3.542968-10.027343 13-16.746093 23.632812-16.789062zm-82.734375 247.320312 75.316406-180.171875h13.738281l-44.609374 200.894532-45.492188-14c-.144531-2.289063.210938-4.585938 1.046875-6.722657zm0 0"/><path d="m429.15625 201.285156c9.105469-.234375 16.363281-7.679687 16.359375-16.789062v-25.179688c-.019531-16.667968-9.902344-31.742187-25.179687-38.40625v-20.347656c0-9.269531-7.515626-16.785156-16.785157-16.785156h-8.394531v-20.28125c0-1.339844 1.789062-3.421875 4.785156-4.574219 3.855469-1.460937 7.40625-3.632813 10.464844-6.402344 6.328125-5.554687 9.953125-13.5625 9.953125-21.984375 0-8.417968-3.625-16.425781-9.953125-21.980468-13.292969-11.230469-32.75-11.230469-46.046875 0-3.382813 3.125-3.617187 8.394531-.519531 11.804687 3.097656 3.414063 8.363281 3.691406 11.800781.625 6.824219-5.628906 16.679687-5.628906 23.503906 0 2.777344 2.398437 4.394531 5.875 4.4375 9.542969-.042969 3.695312-1.671875 7.195312-4.472656 9.601562-1.519531 1.363282-3.273437 2.429688-5.179687 3.15625-8.882813 2.875-15.074219 10.929688-15.558594 20.253906v20.238282h-8.394532c-9.273437 0-16.789062 7.515625-16.789062 16.785156v20.347656c-15.273438 6.664063-25.15625 21.738282-25.179688 38.40625v25.179688c0 9.109375 7.261719 16.5625 16.367188 16.789062l-72.628906 173.742188c-5.371094 13.007812-1.867188 27.992187 8.714844 37.269531l94.695312 86.738281c6.601562 5.941406 16.632812 5.914063 23.207031-.058594l94.558594-86.582031c10.683594-9.273437 14.246094-24.335937 8.855469-37.417969zm58.160156 186.945313-45.476562 13.992187-44.609375-200.9375h13.746093l75.300782 180.148438c.839844 2.148437 1.195312 4.453125 1.039062 6.757812zm-100.554687 30.9375-38.96875-12.035157 38.96875-175.507812 38.980469 175.507812zm-16.785157-318.605469h33.574219v16.789062h-33.574219zm0 33.574219h33.574219c10.632813.039062 20.097657 6.757812 23.644531 16.789062h-15.253906c-4.632812 0-8.390625 3.757813-8.390625 8.390625 0 4.636719 3.757813 8.394532 8.390625 8.394532h16.789063v16.785156h-83.933594v-16.785156h33.574219c4.632812 0 8.390625-3.757813 8.390625-8.394532 0-4.632812-3.757813-8.390625-8.390625-8.390625h-32.03125c3.542968-10.027343 13.003906-16.746093 23.636718-16.789062zm-82.726562 247.320312 75.316406-180.171875h13.738282l-44.609376 200.894532-45.511718-13.988282c-.140625-2.296875.222656-4.59375 1.066406-6.734375zm16.996094 29.839844 74.125 22.804687v45.074219zm90.910156 67.398437v-44.585937l74.003906-22.769531zm0 0"/></svg>