<?xml version="1.0" encoding="iso-8859-1"?>
<!-- Generator: Adobe Illustrator 19.0.0, SVG Export Plug-In . SVG Version: 6.00 Build 0)  -->
<svg version="1.1" id="Capa_1" xmlns="http://www.w3.org/2000/svg" xmlns:xlink="http://www.w3.org/1999/xlink" x="0px" y="0px"
	 viewBox="0 0 512.039 512.039" style="enable-background:new 0 0 512.039 512.039;" xml:space="preserve">
<g transform="translate(0 -1)">
	<g>
		<g>
			<path d="M91.339,366.752c0.016-17.706-12.655-32.88-30.08-36.023c-0.183,0-0.274-0.091-0.457-0.091
				c-9.532-1.639-19.322,0.635-27.154,6.309h-0.091c-12.972,9.223-18.489,25.777-13.644,40.938
				c4.845,15.161,18.939,25.448,34.856,25.439c1.07,0.033,2.141-0.028,3.2-0.183h0.091c5.515-15.435,17.662-27.582,33.097-33.097
				C91.309,368.953,91.37,367.852,91.339,366.752z"/>
			<path d="M109.625,385.038c-2.459-0.052-4.915,0.194-7.314,0.731c-0.183,0.091-0.457,0.091-0.64,0.183h-0.183
				c-0.183,0.091-0.457,0.091-0.64,0.183c-13.135,3.306-23.391,13.562-26.697,26.697c-0.101,0.167-0.164,0.354-0.183,0.549
				c-0.113,0.292-0.174,0.601-0.183,0.914c-0.528,2.401-0.774,4.856-0.731,7.314c0,20.198,16.374,36.571,36.571,36.571
				c3.467,0.021,6.918-0.472,10.24-1.463c2.961-15.518,12.543-28.973,26.24-36.846C145.243,400.362,129.154,384.999,109.625,385.038
				z"/>
			<path d="M60.254,312.169c8.448-7.215,13.15-17.885,12.777-28.988s-5.783-21.432-14.697-28.063
				c-0.462-0.252-0.892-0.559-1.28-0.914c-7.889-5.539-17.708-7.589-27.154-5.669c-16.691,3.112-29.045,17.301-29.83,34.262
				s10.206,32.23,26.538,36.87C36.679,313.499,48.517,310.861,60.254,312.169z"/>
			<path d="M95.179,165.152c1.747,0.337,3.524,0.491,5.303,0.457c20.198,0,36.571-16.374,36.571-36.571
				c0-20.198-16.374-36.571-36.571-36.571c-20.198,0-36.571,16.374-36.571,36.571c-0.029,7.323,2.206,14.476,6.4,20.48
				C79.865,152.377,88.462,157.781,95.179,165.152z"/>
			<path d="M30.997,229.883h0.183c11.708-1.318,23.521,1.321,33.554,7.497c11.615-3.293,20.856-12.107,24.696-23.553
				s1.783-24.05-5.496-33.681c-0.091,0-0.091-0.091-0.183-0.183c-0.354-0.355-0.662-0.755-0.914-1.189
				c-5.121-6.203-12.169-10.515-20.023-12.251c-2.636-0.625-5.337-0.932-8.046-0.914c-15.304-0.029-29.001,9.49-34.31,23.844
				C15.149,203.806,19.357,219.947,30.997,229.883z"/>
			<path d="M478.905,337.403c-0.227-0.205-0.472-0.388-0.731-0.549c-0.183-0.091-0.366-0.274-0.549-0.366
				c-7.889-5.539-17.708-7.589-27.154-5.669c-17.39,3.115-30.035,18.265-29.989,35.931c-0.033,1.07,0.028,2.141,0.183,3.2
				c15.426,5.58,27.56,17.748,33.097,33.189c1.09,0.152,2.191,0.213,3.291,0.183c15.775,0.013,29.781-10.09,34.745-25.064
				S491.565,346.816,478.905,337.403z"/>
			<path d="M511.965,282.67c-0.831-17.041-13.335-31.243-30.134-34.226c-0.158,0.014-0.317-0.018-0.457-0.091
				c-0.101,0.012-0.201-0.021-0.274-0.091c-9.456-1.566-19.144,0.741-26.88,6.4c-0.251,0.14-0.496,0.292-0.731,0.457
				c-9.224,6.945-14.67,17.803-14.72,29.349c0.016,10.66,4.692,20.781,12.8,27.703c11.766-1.318,23.636,1.32,33.737,7.497
				C501.734,315.062,512.796,299.711,511.965,282.67z"/>
			<path d="M428.528,179.323c-0.274,0.274-0.457,0.549-0.731,0.823c-4.722,6.379-7.285,14.098-7.314,22.034
				c-0.035,16.404,10.892,30.81,26.697,35.2c10.071-6.167,21.909-8.805,33.646-7.497c11.64-9.936,15.847-26.077,10.539-40.431
				c-5.309-14.354-19.006-23.873-34.31-23.844c-2.673-0.007-5.339,0.269-7.954,0.823c-0.183,0.091-0.366,0.091-0.549,0.183
				C440.638,168.481,433.585,172.958,428.528,179.323z"/>
			<path d="M411.339,165.609c1.774,0.018,3.548-0.104,5.303-0.366c6.69-7.468,15.336-12.915,24.96-15.726
				c4.139-6.025,6.339-13.17,6.309-20.48c0-20.198-16.374-36.571-36.571-36.571s-36.571,16.374-36.571,36.571
				C374.768,149.235,391.142,165.609,411.339,165.609z"/>
			<path d="M437.671,412.832c-3.306-13.135-13.562-23.391-26.697-26.697c-0.549-0.091-1.006-0.274-1.463-0.366
				c-2.401-0.528-4.856-0.774-7.314-0.731c-19.529-0.039-35.618,15.324-36.48,34.834c13.675,7.897,23.248,21.341,26.24,36.846
				c3.322,0.991,6.773,1.484,10.24,1.463c20.198,0,36.571-16.374,36.571-36.571c0.052-2.459-0.194-4.915-0.731-7.314
				C437.945,413.746,437.762,413.289,437.671,412.832z"/>
			<path d="M374.494,463.941v-0.457c-0.183-1.097-0.366-2.194-0.64-3.291c0.006-0.501-0.087-0.998-0.274-1.463
				c-0.299-1.368-0.696-2.712-1.189-4.023c-0.107-0.238-0.198-0.482-0.274-0.731c-0.381-1.039-0.839-2.047-1.371-3.017
				c-0.786-1.703-1.735-3.326-2.834-4.846c-0.869-1.272-1.848-2.465-2.926-3.566c-0.475-0.644-1.028-1.228-1.646-1.737
				c-0.549-0.549-1.189-1.097-1.737-1.554c-1.189-0.914-2.377-1.92-3.657-2.743s-2.834-1.646-4.297-2.377h-0.091l-0.549-0.274
				c-0.366-0.183-0.64-0.274-1.006-0.457c-4.375-1.807-9.072-2.709-13.806-2.651c-14.26-0.032-27.228,8.257-33.189,21.211
				c3.802,7.607,5.775,15.998,5.76,24.503c-0.01,4.373-0.531,8.731-1.554,12.983c6.84,9.12,17.583,14.475,28.983,14.446
				c20.198,0,36.571-16.374,36.571-36.571c-0.015-0.886-0.076-1.771-0.183-2.651C374.6,464.425,374.569,464.177,374.494,463.941z"/>
			<path d="M287.454,457.998l-0.823-1.371c-1.405-2.172-3.029-4.194-4.846-6.034c-14.302-14.261-37.447-14.261-51.749,0
				c-1.817,1.841-3.441,3.863-4.846,6.034l-0.823,1.371c-3.317,5.588-5.054,11.971-5.029,18.469
				c0.01,3.621,0.533,7.223,1.554,10.697c3.772,12.276,13.698,21.681,26.159,24.787c12.461,3.106,25.64-0.54,34.732-9.61
				c11.758-11.733,14.09-29.934,5.669-44.251V457.998z"/>
			<path d="M173.625,430.752c-4.734-0.058-9.43,0.844-13.806,2.651c-0.366,0.183-0.64,0.274-1.006,0.457l-0.549,0.274
				c-11.908,5.451-19.923,16.931-20.937,29.989c0,0.183-0.091,0.366-0.091,0.549c-0.091,1.097-0.183,1.829-0.183,2.651
				c0,20.198,16.374,36.571,36.571,36.571c11.399,0.029,22.143-5.326,28.983-14.446c-1.023-4.252-1.544-8.609-1.554-12.983
				c-0.015-8.505,1.958-16.895,5.76-24.503C200.854,439.009,187.885,430.72,173.625,430.752z"/>
			<path d="M182.768,1.038c-13.383-0.027-25.707,7.272-32.115,19.021c-6.408,11.749-5.873,26.062,1.395,37.299l-22.766,25.051
				c5.251,3.214,9.919,7.294,13.806,12.069L165.579,69.7c13.406,7.189,29.864,5.311,41.305-4.715
				c11.44-10.026,15.463-26.095,10.096-40.329C211.612,10.424,197.98,1.012,182.768,1.038z M182.768,55.895
				c-4.642,0.01-9.104-1.794-12.434-5.029h-0.091l-0.091-0.091c-3.623-3.42-5.674-8.183-5.669-13.166
				c0-10.099,8.187-18.286,18.286-18.286c10.099,0,18.286,8.187,18.286,18.286C201.054,47.708,192.867,55.895,182.768,55.895z"/>
			<path d="M310.768,37.609c-0.006-7.389,4.435-14.055,11.256-16.895c6.821-2.84,14.681-1.297,19.921,3.912v0.091h0.091
				c3.458,3.477,5.369,8.202,5.3,13.106c-0.069,4.904-2.111,9.573-5.666,12.952l-0.091,0.091h-0.091
				c-3.33,3.234-7.792,5.039-12.434,5.029c-5.049,0-9.143,4.093-9.143,9.143s4.093,9.143,9.143,9.143
				c6.011-0.052,11.917-1.591,17.189-4.48l22.491,24.777c3.887-4.774,8.555-8.855,13.806-12.069l-22.766-25.051
				c7.564-11.55,7.813-26.42,0.64-38.217l2.56-2.469c2.319-2.319,3.225-5.699,2.376-8.867s-3.323-5.643-6.491-6.491
				c-3.168-0.849-6.548,0.057-8.867,2.376l-2.469,2.56c-11.253-6.786-25.295-6.96-36.713-0.454
				c-11.418,6.505-18.427,18.674-18.327,31.814c0,5.049,4.093,9.143,9.143,9.143S310.768,42.659,310.768,37.609z"/>
		</g>
	</g>
</g>
<g>
</g>
<g>
</g>
<g>
</g>
<g>
</g>
<g>
</g>
<g>
</g>
<g>
</g>
<g>
</g>
<g>
</g>
<g>
</g>
<g>
</g>
<g>
</g>
<g>
</g>
<g>
</g>
<g>
</g>
</svg>
